<svg width="143" height="29" viewBox="0 0 143 29" fill="none" xmlns="http://www.w3.org/2000/svg">
<g filter="url(#filter0_i_2425_6663)">
<path d="M3.99655 6.62412C4.23606 6.99934 4.53315 7.2581 4.85726 7.4388C6.03547 6.11013 7.5194 5.04602 9.19645 4.33086C9.14892 4.00112 9.0363 3.66879 8.82829 3.3429C8.42702 2.71426 7.73405 2.40333 7.08639 2.50655C6.47263 2.60436 5.93371 3.0667 5.72026 3.89914C4.89441 3.77216 4.26967 4.10006 3.93985 4.64269C3.59247 5.21586 3.59528 5.99547 3.99655 6.62412Z" fill="#1D4392"/>
<path d="M5.51152 7.7017C5.96783 7.8281 6.45113 7.86507 6.87804 7.89747C6.92221 7.90082 6.96577 7.90417 7.00862 7.90759C7.08777 7.91529 7.16326 7.92168 7.23393 7.92672C7.38664 7.93955 7.54558 7.94998 7.69436 7.94188C7.86762 7.93221 8.04976 7.89658 8.20482 7.79127C8.35989 7.68597 8.46361 7.52748 8.54069 7.36714C8.61786 7.20641 8.67762 7.02295 8.73313 6.85101C8.76275 6.75918 8.79296 6.66755 8.82377 6.57613C8.84672 6.50757 8.87017 6.4375 8.89364 6.36614C8.93396 6.2523 8.97944 6.10976 9.02326 5.95024C9.09308 5.70855 9.15376 5.45754 9.18948 5.204C9.22953 4.91934 9.23917 4.62611 9.19661 4.33081C7.51956 5.04597 6.03563 6.11008 4.85742 7.43875C5.06692 7.55555 5.2877 7.63974 5.51152 7.7017Z" fill="#1D4392"/>
<path d="M26.9311 16.6167C27.2395 13.8273 26.4948 11.1437 25.0004 8.92603C21.0578 19.8089 15.1441 24.507 10.1865 26.1741L10.1923 26.1762C11.1599 26.528 12.1796 26.7894 13.2002 26.9082C20.065 27.7157 26.2134 23.1077 26.9311 16.6167Z" fill="#052DA6"/>
<path fill-rule="evenodd" clip-rule="evenodd" d="M9.6567 5.27411C9.7069 4.91766 9.716 4.53745 9.6458 4.14956C11.5256 3.43203 13.6267 3.14506 15.7996 3.40067C19.7143 3.86118 23.0175 5.98344 25.0006 8.92614C21.058 19.809 15.1443 24.5071 10.1867 26.1742C7.44837 27.095 5.00172 27.091 3.34005 26.6936C4.11232 25.9462 4.68705 25.0079 5.00991 23.9675C5.20621 23.3311 4.96814 22.6623 4.558 22.145C2.69515 19.7956 1.72392 16.8108 2.06875 13.6921C2.31528 11.4625 3.20255 9.45507 4.53951 7.81297C4.81433 7.97946 5.10351 8.09315 5.38914 8.17221C5.89019 8.311 6.41212 8.3506 6.82993 8.3823L6.84338 8.38332C6.88596 8.38655 6.92756 8.38974 6.96832 8.39299C7.04853 8.40076 7.1256 8.40728 7.19844 8.41251C7.35229 8.4254 7.53739 8.43826 7.71923 8.42836C7.93011 8.41659 8.2092 8.37153 8.46445 8.19819C8.7197 8.02485 8.86997 7.77856 8.96379 7.58341C9.05709 7.38909 9.12612 7.17527 9.17968 7.00936L9.18112 7.00491C9.21008 6.91514 9.23962 6.82555 9.26973 6.73617C9.29207 6.66942 9.31566 6.59898 9.33902 6.52799C9.38267 6.40435 9.43065 6.25344 9.47664 6.08634C9.55 5.83216 9.6168 5.55776 9.6567 5.27411ZM19.1073 11.4056C19.2487 11.658 20.0499 11.7457 20.5836 11.4269C21.118 11.1094 21.445 10.3498 21.304 10.0964C21.2925 10.0757 21.2809 10.0554 21.2696 10.0355C21.0826 9.70689 20.9449 9.46491 21.5595 9.00115C22.1455 8.55894 22.3666 8.97627 22.5481 9.31896C22.5685 9.35749 22.5884 9.39508 22.6082 9.4304C22.834 9.83434 22.4399 11.3087 20.9979 12.1671C19.5559 13.0255 18.1214 12.641 17.8955 12.2375C17.876 12.2025 17.8546 12.1665 17.8327 12.1295C17.635 11.7959 17.3934 11.3883 18.0595 11.0856C18.7573 10.7685 18.8913 11.0124 19.0736 11.3446C19.0847 11.3646 19.0958 11.385 19.1073 11.4056Z" fill="#4A86D9"/>
<path d="M20.5835 11.4268C20.0498 11.7456 19.2486 11.6579 19.1072 11.4055C19.0957 11.3849 19.0846 11.3645 19.0735 11.3445C18.8912 11.0123 18.7572 10.7684 18.0594 11.0855C17.3933 11.3882 17.6349 11.7958 17.8326 12.1294C17.8545 12.1664 17.8759 12.2024 17.8954 12.2374C18.1213 12.6409 19.5558 13.0254 20.9978 12.167C22.4398 11.3086 22.8339 9.83429 22.6081 9.43035C22.5883 9.39503 22.5684 9.35744 22.548 9.31891C22.3665 8.97622 22.1454 8.55889 21.5594 9.0011C20.9448 9.46486 21.0825 9.70684 21.2695 10.0354C21.2808 10.0554 21.2924 10.0756 21.3039 10.0963C21.4449 10.3497 21.1179 11.1093 20.5835 11.4268Z" fill="#052DA6"/>
<mask id="mask0_2425_6663" style="mask-type:luminance" maskUnits="userSpaceOnUse" x="0" y="0" width="29" height="29">
<path d="M29 0H0V29H29V0Z" fill="white"/>
<path d="M3.99655 6.62412C4.23606 6.99934 4.53315 7.2581 4.85726 7.4388C6.03547 6.11013 7.5194 5.04602 9.19645 4.33086C9.14892 4.00112 9.0363 3.66879 8.82829 3.3429C8.42702 2.71426 7.73405 2.40333 7.08639 2.50655C6.47263 2.60436 5.93371 3.0667 5.72026 3.89914C4.89441 3.77216 4.26967 4.10006 3.93985 4.64269C3.59247 5.21586 3.59528 5.99547 3.99655 6.62412Z" fill="black"/>
<path d="M5.51152 7.7017C5.96783 7.8281 6.45113 7.86507 6.87804 7.89747C6.92221 7.90082 6.96577 7.90417 7.00862 7.90759C7.08777 7.91529 7.16326 7.92168 7.23393 7.92672C7.38664 7.93955 7.54558 7.94998 7.69436 7.94188C7.86762 7.93221 8.04976 7.89658 8.20482 7.79127C8.35989 7.68597 8.46361 7.52748 8.54069 7.36714C8.61786 7.20641 8.67762 7.02295 8.73313 6.85101C8.76275 6.75918 8.79296 6.66755 8.82377 6.57613C8.84672 6.50757 8.87017 6.4375 8.89364 6.36614C8.93396 6.2523 8.97944 6.10976 9.02326 5.95024C9.09308 5.70855 9.15376 5.45754 9.18948 5.204C9.22953 4.91934 9.23917 4.62611 9.19661 4.33081C7.51956 5.04597 6.03563 6.11008 4.85742 7.43875C5.06692 7.55555 5.2877 7.63974 5.51152 7.7017Z" fill="black"/>
<path d="M26.9311 16.6167C27.2395 13.8273 26.4948 11.1437 25.0004 8.92603C21.0578 19.8089 15.1441 24.507 10.1865 26.1741L10.1923 26.1762C11.1599 26.528 12.1796 26.7894 13.2002 26.9082C20.065 27.7157 26.2134 23.1077 26.9311 16.6167Z" fill="black"/>
<path fill-rule="evenodd" clip-rule="evenodd" d="M9.6567 5.27411C9.7069 4.91766 9.716 4.53745 9.6458 4.14956C11.5256 3.43203 13.6267 3.14506 15.7996 3.40067C19.7143 3.86118 23.0175 5.98344 25.0006 8.92614C21.058 19.809 15.1443 24.5071 10.1867 26.1742C7.44837 27.095 5.00172 27.091 3.34005 26.6936C4.11232 25.9462 4.68705 25.0079 5.00991 23.9675C5.20621 23.3311 4.96814 22.6623 4.558 22.145C2.69515 19.7956 1.72392 16.8108 2.06875 13.6921C2.31528 11.4625 3.20255 9.45507 4.53951 7.81297C4.81433 7.97946 5.10351 8.09315 5.38914 8.17221C5.89019 8.311 6.41212 8.3506 6.82993 8.3823L6.84338 8.38332C6.88596 8.38655 6.92756 8.38974 6.96832 8.39299C7.04853 8.40076 7.1256 8.40728 7.19844 8.41251C7.35229 8.4254 7.53739 8.43826 7.71923 8.42836C7.93011 8.41659 8.2092 8.37153 8.46445 8.19819C8.7197 8.02485 8.86997 7.77856 8.96379 7.58341C9.05709 7.38909 9.12612 7.17527 9.17968 7.00936L9.18112 7.00491C9.21008 6.91514 9.23962 6.82555 9.26973 6.73617C9.29207 6.66942 9.31566 6.59898 9.33902 6.52799C9.38267 6.40435 9.43065 6.25344 9.47664 6.08634C9.55 5.83216 9.6168 5.55776 9.6567 5.27411ZM19.1073 11.4056C19.2487 11.658 20.0499 11.7457 20.5836 11.4269C21.118 11.1094 21.445 10.3498 21.304 10.0964C21.2925 10.0757 21.2809 10.0554 21.2696 10.0355C21.0826 9.70689 20.9449 9.46491 21.5595 9.00115C22.1455 8.55894 22.3666 8.97627 22.5481 9.31896C22.5685 9.35749 22.5884 9.39508 22.6082 9.4304C22.834 9.83434 22.4399 11.3087 20.9979 12.1671C19.5559 13.0255 18.1214 12.641 17.8955 12.2375C17.876 12.2025 17.8546 12.1665 17.8327 12.1295C17.635 11.7959 17.3934 11.3883 18.0595 11.0856C18.7573 10.7685 18.8913 11.0124 19.0736 11.3446C19.0847 11.3646 19.0958 11.385 19.1073 11.4056Z" fill="black"/>
<path d="M20.5835 11.4268C20.0498 11.7456 19.2486 11.6579 19.1072 11.4055C19.0957 11.3849 19.0846 11.3645 19.0735 11.3445C18.8912 11.0123 18.7572 10.7684 18.0594 11.0855C17.3933 11.3882 17.6349 11.7958 17.8326 12.1294C17.8545 12.1664 17.8759 12.2024 17.8954 12.2374C18.1213 12.6409 19.5558 13.0254 20.9978 12.167C22.4398 11.3086 22.8339 9.83429 22.6081 9.43035C22.5883 9.39503 22.5684 9.35744 22.548 9.31891C22.3665 8.97622 22.1454 8.55889 21.5594 9.0011C20.9448 9.46486 21.0825 9.70684 21.2695 10.0354C21.2808 10.0554 21.2924 10.0756 21.3039 10.0963C21.4449 10.3497 21.1179 11.1093 20.5835 11.4268Z" fill="black"/>
</mask>
<g mask="url(#mask0_2425_6663)">
<path d="M9.64588 4.14934L9.91328 4.85004C10.2505 4.72136 10.4482 4.37084 10.3839 4.01575L9.64588 4.14934ZM4.53959 7.81276L4.15099 8.45424C4.47101 8.6481 4.88496 8.57645 5.1212 8.2863L4.53959 7.81276ZM3.53972 4.38445L2.89914 3.99436L2.89855 3.99535L3.53972 4.38445ZM5.39245 3.38498L5.38739 4.13496C5.69358 4.13702 5.97028 3.95276 6.08641 3.66945L5.39245 3.38498ZM25.7058 9.18139C25.8469 8.79195 25.6456 8.36186 25.2562 8.22078C24.8667 8.07969 24.4366 8.28101 24.2955 8.67046L25.7058 9.18139ZM9.93628 26.8809C10.3255 27.0225 10.7559 26.8217 10.8974 26.4324C11.039 26.0431 10.8382 25.6128 10.4489 25.4712L9.93628 26.8809ZM10.0081 25.3185C9.62458 25.1618 9.18676 25.3457 9.03014 25.7292C8.87352 26.1127 9.0574 26.5505 9.44087 26.7071L10.0081 25.3185ZM20.5837 11.4267L20.2005 10.782L20.199 10.7829L20.5837 11.4267ZM19.1074 11.4054L18.4526 11.771L18.4531 11.772L19.1074 11.4054ZM22.6083 9.43019L23.263 9.0643L23.262 9.06243L22.6083 9.43019ZM21.3041 10.0961L21.9596 9.73166L21.9586 9.72989L21.3041 10.0961ZM9.3784 3.44866C9.21823 3.50979 9.05957 3.57388 8.90248 3.64087L9.49087 5.02065C9.63028 4.9612 9.77108 4.90432 9.91328 4.85004L9.3784 3.44866ZM4.29634 6.94109C4.18079 7.0714 4.06797 7.20415 3.95798 7.33923L5.1212 8.2863C5.21784 8.1676 5.31701 8.05092 5.41864 7.93631L4.29634 6.94109ZM8.90248 3.64087C7.12571 4.39856 5.54992 5.52742 4.29634 6.94109L5.41864 7.93631C6.52149 6.69262 7.91355 5.69329 9.49087 5.02065L8.90248 3.64087ZM4.92819 7.17129C4.67316 7.01679 4.43443 6.80132 4.23462 6.48829L2.97024 7.29535C3.30121 7.81386 3.71133 8.1879 4.15099 8.45424L4.92819 7.17129ZM4.23462 6.48829C3.88334 5.93795 3.88603 5.26007 4.18112 4.77317L2.89855 3.99535C2.29496 4.99126 2.32464 6.28392 2.97024 7.29535L4.23462 6.48829ZM4.18112 4.77317C4.41885 4.38204 4.83063 4.1312 5.38739 4.13496L5.39751 2.635C4.32897 2.62779 3.41886 3.13929 2.89914 3.99436L4.18112 4.77317ZM6.08641 3.66945C6.31257 3.11773 6.70874 2.83336 7.13256 2.76582L6.8965 1.28451C5.91071 1.44161 5.10517 2.10842 4.69849 3.10052L6.08641 3.66945ZM7.13256 2.76582C7.65454 2.68262 8.24103 2.93076 8.59068 3.47853L9.85508 2.67147C9.20801 1.65778 8.05098 1.10051 6.8965 1.28451L7.13256 2.76582ZM8.59068 3.47853C8.76266 3.74797 8.85981 4.0176 8.90784 4.28294L10.3839 4.01575C10.3031 3.5695 10.1379 3.11463 9.85508 2.67147L8.59068 3.47853ZM10.4259 26.8849C15.6406 25.1314 21.7012 20.2355 25.7058 9.18139L24.2955 8.67046C20.415 19.3821 14.6482 23.8825 9.94778 25.4631L10.4259 26.8849ZM10.4489 25.4712C10.4463 25.4703 10.4438 25.4694 10.4419 25.4687L9.93168 26.8793C9.93358 26.88 9.93498 26.8805 9.93628 26.8809L10.4489 25.4712ZM10.4419 25.4687C10.1898 25.3775 10.1663 25.3831 10.0081 25.3185L9.44087 26.7071C9.59948 26.7719 9.86358 26.8546 9.93168 26.8793L10.4419 25.4687ZM20.199 10.7829C20.0879 10.8493 19.9092 10.8895 19.7343 10.8811C19.6507 10.8771 19.6005 10.8632 19.586 10.8578C19.5794 10.8553 19.5956 10.8603 19.6241 10.8805C19.6512 10.8998 19.7111 10.9484 19.7618 11.0388L18.4531 11.772C18.6167 12.0639 18.8927 12.1998 19.0595 12.2623C19.2516 12.3344 19.4615 12.3698 19.6626 12.3794C20.0571 12.3983 20.5458 12.323 20.9683 12.0706L20.199 10.7829ZM17.2412 12.6035C17.4191 12.9215 17.7368 13.1054 17.9822 13.2086C18.2576 13.3245 18.5857 13.3991 18.939 13.4236C19.6501 13.4728 20.5225 13.3229 21.3817 12.8113L20.6144 11.5225C20.0316 11.8694 19.4657 11.9564 19.0426 11.9271C18.8288 11.9123 18.6657 11.8688 18.5636 11.8259C18.4315 11.7703 18.4851 11.7548 18.5501 11.871L17.2412 12.6035ZM21.3817 12.8113C22.2404 12.3001 22.7967 11.5998 23.1058 10.9504C23.2596 10.6273 23.3587 10.3031 23.3982 10.0064C23.4332 9.74365 23.4383 9.37782 23.263 9.0643L21.9536 9.79609C21.8913 9.68453 21.9318 9.65447 21.9113 9.80859C21.8953 9.92874 21.8481 10.1026 21.7514 10.3058C21.5594 10.7092 21.1977 11.1752 20.6144 11.5225L21.3817 12.8113ZM20.6487 10.4607C20.5992 10.3717 20.5899 10.2982 20.5878 10.2705C20.5855 10.2403 20.5889 10.2284 20.587 10.2395C20.583 10.2629 20.5671 10.3208 20.5267 10.4014C20.4418 10.5706 20.3136 10.7148 20.2005 10.782L20.9668 12.0715C21.3881 11.8211 21.6906 11.4267 21.8677 11.0734C21.9582 10.8928 22.031 10.6934 22.0654 10.4932C22.0948 10.3216 22.1192 10.0186 21.9596 9.73166L20.6487 10.4607ZM21.9586 9.72989C21.9455 9.70648 21.9327 9.6839 21.9215 9.66426L20.6179 10.4062C20.6294 10.4264 20.6396 10.4445 20.6497 10.4624L21.9586 9.72989ZM21.9215 9.66426C21.8969 9.62094 21.8808 9.59253 21.8673 9.56682C21.8543 9.54214 21.8497 9.53101 21.8487 9.52844C21.8479 9.52656 21.853 9.53907 21.857 9.56256C21.8611 9.58757 21.8632 9.62042 21.8587 9.65759C21.8543 9.69484 21.8447 9.72515 21.8355 9.74621C21.8268 9.76605 21.8207 9.7725 21.8262 9.76536C21.8318 9.75788 21.847 9.73955 21.8779 9.71037C21.9087 9.68129 21.9519 9.6445 22.0113 9.59963L21.1078 8.40225C20.7645 8.66132 20.4264 9.00094 20.3693 9.48C20.3156 9.9306 20.5571 10.2995 20.6179 10.4062L21.9215 9.66426ZM22.0113 9.59963C22.0538 9.56759 22.0796 9.5535 22.0896 9.54867C22.0992 9.54403 22.0883 9.55076 22.0594 9.55559C22.0286 9.56074 21.9856 9.56229 21.936 9.55245C21.8868 9.54267 21.846 9.52463 21.8161 9.50642C21.7877 9.48918 21.7726 9.47405 21.7694 9.47072C21.7664 9.46761 21.7708 9.47163 21.7819 9.48786C21.793 9.50396 21.807 9.5264 21.8251 9.55828C21.8435 9.59083 21.8619 9.62543 21.8854 9.66977L23.2109 8.96773C23.1694 8.88937 23.1016 8.7594 23.0171 8.63681C22.933 8.5147 22.7986 8.34825 22.5951 8.22459C22.3711 8.08843 22.1014 8.02777 21.8122 8.0761C21.5458 8.12061 21.3107 8.24921 21.1078 8.40225L22.0113 9.59963ZM21.8854 9.66977C21.9048 9.70655 21.9293 9.75282 21.9547 9.79796L23.262 9.06243C23.2476 9.03692 23.2323 9.00802 23.2109 8.96773L21.8854 9.66977ZM18.5501 11.871C18.5252 11.8265 18.4989 11.7822 18.478 11.7469L17.1876 12.5116C17.2105 12.5503 17.227 12.5782 17.2412 12.6035L18.5501 11.871ZM18.478 11.7469C18.4524 11.7037 18.4325 11.67 18.4143 11.6372C18.3965 11.6051 18.3844 11.5811 18.3762 11.5627C18.368 11.5442 18.3662 11.5371 18.3668 11.5394C18.3675 11.542 18.3719 11.5593 18.3722 11.5881C18.3725 11.6184 18.3682 11.657 18.3543 11.6986C18.3402 11.7405 18.3208 11.7728 18.3039 11.7942C18.288 11.8143 18.2789 11.8192 18.288 11.8126C18.2976 11.8057 18.3223 11.7898 18.3698 11.7682L17.7493 10.4026C17.5162 10.5085 17.293 10.654 17.1268 10.8644C16.9485 11.0902 16.8697 11.3483 16.8723 11.6034C16.8747 11.8379 16.9452 12.0365 17.0061 12.1733C17.0669 12.3097 17.1423 12.4352 17.1876 12.5116L18.478 11.7469ZM18.3698 11.7682C18.4371 11.7376 18.4891 11.7177 18.528 11.7051C18.5671 11.6924 18.5883 11.6885 18.5949 11.6875C18.601 11.6867 18.5884 11.6892 18.5622 11.6865C18.5344 11.6836 18.4983 11.6756 18.459 11.6584C18.42 11.6413 18.3894 11.6201 18.3679 11.6017C18.3477 11.5844 18.3385 11.5719 18.3393 11.573C18.3405 11.5746 18.3474 11.5839 18.3616 11.6079C18.3764 11.6329 18.3923 11.6616 18.4163 11.7054L19.7312 10.9834C19.6757 10.8824 19.4833 10.4695 19.0609 10.2844C18.6058 10.0851 18.134 10.2278 17.7493 10.4026L18.3698 11.7682ZM18.4163 11.7054C18.4272 11.7251 18.4396 11.7478 18.4526 11.771L19.7623 11.0398C19.7523 11.0219 19.7423 11.0038 19.7312 10.9834L18.4163 11.7054ZM7.00869 7.90754L7.15385 6.41458C7.14522 6.41374 7.1366 6.41297 7.12796 6.41228L7.00869 7.90754ZM7.234 7.92667L7.35953 6.43193C7.35331 6.43141 7.34708 6.43093 7.34084 6.43048L7.234 7.92667ZM7.69443 7.94182L7.77595 9.43962L7.77802 9.4395L7.69443 7.94182ZM8.82384 6.57608L10.2453 7.05506L10.2463 7.05224L8.82384 6.57608ZM8.89371 6.36609L7.47981 5.86521C7.47601 5.87593 7.47233 5.8867 7.46877 5.89751L8.89371 6.36609ZM9.02333 5.95019L7.58226 5.53389C7.58044 5.54019 7.57866 5.54649 7.57692 5.55281L9.02333 5.95019ZM9.64588 4.14934L9.11094 2.74796C8.43668 3.00533 8.04128 3.70636 8.16984 4.41653L9.64588 4.14934ZM9.47672 6.08612L8.03549 5.67036C8.03379 5.67626 8.03212 5.68217 8.03049 5.6881L9.47672 6.08612ZM9.3391 6.52778L7.92464 6.02849C7.92108 6.03857 7.91763 6.04869 7.91428 6.05885L9.3391 6.52778ZM9.27013 6.73502L10.6913 7.21494L10.6923 7.21182L9.27013 6.73502ZM7.71994 8.42812L7.8002 9.92597L7.80353 9.92579L7.71994 8.42812ZM7.71994 8.42812L7.63904 6.93029L7.63778 6.93037L7.71994 8.42812ZM7.19852 8.41229L7.32374 6.91754C7.3178 6.91704 7.31186 6.91657 7.30592 6.91614L7.19852 8.41229ZM6.9684 8.39278L7.11299 6.89976C7.10446 6.89894 7.09593 6.89819 7.0874 6.89751L6.9684 8.39278ZM4.53959 7.81276L5.31679 6.52982C4.67676 6.14208 3.84885 6.28539 3.37638 6.86569L4.53959 7.81276ZM3.94008 4.64259L2.65827 3.8635L2.65728 3.86514L3.94008 4.64259ZM5.72049 3.89903L5.49253 5.38162C6.2549 5.49884 6.9819 5.01877 7.17349 4.27161L5.72049 3.89903ZM13.2005 26.9081L13.3757 25.4183L13.3739 25.4181L13.2005 26.9081ZM10.1926 26.1761L10.7052 24.7664L10.7037 24.7658L10.1926 26.1761ZM3.34013 26.6934L2.29691 25.6156C1.90347 25.9964 1.74879 26.5614 1.89335 27.0895C2.03792 27.6176 2.45876 28.025 2.99129 28.1523L3.34013 26.6934ZM5.00999 23.9673L6.44259 24.4119L6.44336 24.4094L5.00999 23.9673ZM10.1868 26.174L10.6979 24.7637C10.379 24.6482 10.0303 24.6441 9.70868 24.7522L10.1868 26.174ZM6.99163 6.40172C6.54247 6.36763 6.20467 6.33714 5.91204 6.25608L5.11114 9.1472C5.73113 9.31895 6.35994 9.36241 6.76459 9.39312L6.99163 6.40172ZM7.12796 6.41228C7.08232 6.40864 7.03658 6.40514 6.99163 6.40172L6.76459 9.39312C6.80797 9.39641 6.84936 9.3996 6.88943 9.40279L7.12796 6.41228ZM7.34084 6.43048C7.28401 6.42642 7.22133 6.42114 7.15385 6.41458L6.86354 9.4005C6.95435 9.40933 7.04265 9.41683 7.12715 9.42286L7.34084 6.43048ZM7.6129 6.44405C7.57613 6.44605 7.50669 6.44429 7.35953 6.43193L7.10846 9.42141C7.26672 9.4347 7.51517 9.45382 7.77595 9.43962L7.6129 6.44405ZM7.3622 6.5503C7.44727 6.49252 7.52284 6.46571 7.56696 6.45385C7.60831 6.44273 7.6276 6.44323 7.61083 6.44416L7.77802 9.4395C8.07645 9.42284 8.57103 9.35576 9.04759 9.03213L7.3622 6.5503ZM7.18889 6.71713C7.17903 6.73763 7.18283 6.72528 7.20466 6.69634C7.22786 6.6656 7.2779 6.60755 7.3622 6.5503L9.04759 9.03213C9.51918 8.7119 9.76608 8.28034 9.89268 8.01702L7.18889 6.71713ZM7.30575 6.3901C7.24488 6.57865 7.21469 6.6634 7.18889 6.71713L9.89268 8.01702C10.0213 7.7493 10.1105 7.46715 10.1607 7.31182L7.30575 6.3901ZM7.40237 6.09711C7.36949 6.19466 7.33737 6.29208 7.30575 6.3901L10.1607 7.31182C10.1883 7.22618 10.2166 7.14034 10.2453 7.05506L7.40237 6.09711ZM7.46877 5.89751C7.44674 5.9645 7.42453 6.03088 7.40142 6.09993L10.2463 7.05224C10.2691 6.98416 10.2938 6.91041 10.3187 6.83467L7.46877 5.89751ZM7.57692 5.55281C7.54244 5.67832 7.50775 5.78632 7.47981 5.86521L10.3076 6.86697C10.3603 6.71818 10.4166 6.54109 10.4698 6.34757L7.57692 5.55281ZM7.70422 4.9947C7.68169 5.15463 7.64045 5.33246 7.58226 5.53389L10.4644 6.3665C10.5459 6.08454 10.626 5.76036 10.6749 5.41321L7.70422 4.9947ZM7.71202 4.54475C7.73 4.66951 7.7293 4.81645 7.70422 4.9947L10.6749 5.41321C10.73 5.02214 10.7485 4.58261 10.6814 4.11676L7.71202 4.54475ZM8.16984 4.41653C8.20533 4.61258 8.20482 4.8276 8.17143 5.0649L11.1422 5.48316C11.2091 5.00755 11.2268 4.46188 11.1219 3.88216L8.16984 4.41653ZM8.17143 5.0649C8.1446 5.25534 8.09717 5.45657 8.03549 5.67036L10.918 6.50189C11.0029 6.20733 11.0891 5.86002 11.1422 5.48316L8.17143 5.0649ZM8.03049 5.6881C7.99367 5.82188 7.95623 5.93899 7.92464 6.02849L10.7536 7.02707C10.8093 6.86928 10.8678 6.68458 10.923 6.48416L8.03049 5.6881ZM7.91428 6.05885C7.89229 6.12566 7.87021 6.19163 7.8477 6.25887L10.6923 7.21182C10.7144 7.14556 10.7392 7.07188 10.7639 6.99671L7.91428 6.05885ZM7.8477 6.25887L7.8473 6.26009L10.6923 7.21182L10.6927 7.21089L7.8477 6.25887ZM7.84834 6.25698C7.81616 6.35251 7.78458 6.44826 7.75362 6.54423L10.6086 7.46562C10.6355 7.38204 10.6633 7.29818 10.6913 7.21494L7.84834 6.25698ZM7.75362 6.54423L7.75233 6.54822L10.6072 7.47007L10.6086 7.46562L7.75362 6.54423ZM7.75233 6.54822C7.72477 6.63359 7.70162 6.70489 7.67612 6.7754C7.65079 6.84544 7.62928 6.89726 7.61164 6.934L10.3158 8.23315C10.46 7.93276 10.5581 7.62229 10.6072 7.47007L7.75233 6.54822ZM7.61164 6.934C7.60243 6.95315 7.5951 6.96675 7.58876 6.97754C7.58241 6.98834 7.57844 6.99385 7.57729 6.99537C7.57494 6.99848 7.5884 6.97977 7.62183 6.95706L9.30722 9.43889C9.87898 9.05058 10.1725 8.5312 10.3158 8.23315L7.61164 6.934ZM7.62183 6.95706C7.63827 6.94589 7.65331 6.93805 7.66514 6.93284C7.67668 6.92775 7.68415 6.92561 7.68598 6.92512C7.68766 6.92467 7.68471 6.92557 7.676 6.92682C7.66727 6.92807 7.65451 6.92944 7.63635 6.93045L7.80353 9.92579C8.13974 9.90702 8.73057 9.83049 9.30722 9.43889L7.62183 6.95706ZM7.63778 6.93037C7.60761 6.93201 7.56561 6.9323 7.50937 6.93001C7.45323 6.92773 7.3935 6.92338 7.32374 6.91754L7.07329 9.90707C7.23407 9.92053 7.50715 9.94192 7.8002 9.92597L7.63778 6.93037ZM7.30592 6.91614C7.24647 6.91188 7.18184 6.90643 7.11299 6.89976L6.82382 9.88579C6.91538 9.89466 7.00489 9.90226 7.09111 9.90845L7.30592 6.91614ZM7.0874 6.89751C7.044 6.89405 7.00033 6.89069 6.95698 6.8874L6.72993 9.8788C6.77175 9.88198 6.81129 9.88502 6.84941 9.88805L7.0874 6.89751ZM6.95698 6.8874L6.9434 6.88637L6.71653 9.87779L6.72993 9.8788L6.95698 6.8874ZM6.9434 6.88637C6.50748 6.8533 6.1284 6.82027 5.78963 6.72643L4.9888 9.61757C5.65215 9.80131 6.31684 9.84746 6.71653 9.87779L6.9434 6.88637ZM5.78963 6.72643C5.6085 6.67629 5.45144 6.61139 5.31679 6.52982L3.76239 9.09571C4.17738 9.34711 4.59867 9.50958 4.9888 9.61757L5.78963 6.72643ZM5.91204 6.25608C5.77972 6.21946 5.6737 6.17639 5.58794 6.12857L4.12704 8.74883C4.46027 8.93461 4.79582 9.05992 5.11114 9.1472L5.91204 6.25608ZM5.58794 6.12857C5.46599 6.06058 5.35829 5.96913 5.26116 5.81696L2.7324 7.43108C3.11429 8.02935 3.60077 8.45542 4.12704 8.74883L5.58794 6.12857ZM5.26116 5.81696C5.21146 5.73909 5.18897 5.65595 5.18734 5.58016C5.18566 5.5023 5.20592 5.44801 5.22287 5.42004L2.65728 3.86514C2.00177 4.94673 2.03644 6.34074 2.7324 7.43108L5.26116 5.81696ZM5.22188 5.42168C5.23515 5.39986 5.24451 5.39441 5.25466 5.38989C5.26451 5.38551 5.33226 5.35698 5.49253 5.38162L5.94845 2.41647C4.56424 2.20363 3.32387 2.76843 2.65827 3.8635L5.22188 5.42168ZM7.17349 4.27161C7.22079 4.08713 7.2837 4.01771 7.29987 4.00196C7.31437 3.98785 7.31874 3.98839 7.32268 3.98776L6.85056 1.02514C5.57012 1.2292 4.60923 2.19376 4.2675 3.52648L7.17349 4.27161ZM7.32268 3.98776C7.33859 3.98522 7.4607 3.98781 7.56414 4.14986L10.0929 2.53575C9.3938 1.44052 8.12998 0.821222 6.85056 1.02514L7.32268 3.98776ZM7.56414 4.14986C7.65045 4.28508 7.69302 4.41293 7.71202 4.54475L10.6814 4.11676C10.6053 3.58911 10.4226 3.05231 10.0929 2.53575L7.56414 4.14986ZM15.975 1.91073C13.5595 1.62659 11.2149 1.94491 9.11094 2.74796L10.1808 5.55072C11.8365 4.91872 13.6941 4.6631 15.6245 4.89018L15.975 1.91073ZM26.2446 8.08767C24.0191 4.78514 20.327 2.42269 15.975 1.91073L15.6245 4.89018C19.1019 5.29924 22.0162 7.18132 23.7568 9.76419L26.2446 8.08767ZM28.4223 16.7815C28.7723 13.6161 27.9243 10.5803 26.2446 8.08767L23.7568 9.76419C25.0659 11.7069 25.7073 14.0382 25.4405 16.4518L28.4223 16.7815ZM13.0252 28.3978C20.6351 29.293 27.6043 24.1794 28.4223 16.7815L25.4405 16.4518C24.823 22.0357 19.4955 26.1382 13.3757 25.4183L13.0252 28.3978ZM9.67988 27.5857C10.7384 27.9707 11.8725 28.2637 13.0271 28.398L13.3739 25.4181C12.4873 25.315 11.5819 25.0852 10.7052 24.7664L9.67988 27.5857ZM3.57739 23.5228C3.32808 24.3261 2.88578 25.0457 2.29691 25.6156L4.38335 27.7713C5.33903 26.8463 6.04618 25.6893 6.44259 24.4119L3.57739 23.5228ZM3.38269 23.0767C3.48465 23.2053 3.54177 23.3247 3.56586 23.4117C3.58801 23.4917 3.57758 23.5221 3.57662 23.5252L6.44336 24.4094C6.83716 23.1326 6.32265 21.956 5.73347 21.2128L3.38269 23.0767ZM0.577918 13.527C0.186447 17.0675 1.2929 20.4411 3.38269 23.0767L5.73347 21.2128C4.09758 19.1497 3.26155 16.5537 3.55974 13.8567L0.577918 13.527ZM3.37638 6.86569C1.86494 8.72208 0.857478 10.9987 0.577918 13.527L3.55974 13.8567C3.77324 11.9259 4.54031 10.1876 5.70281 8.75983L3.37638 6.86569ZM2.99129 28.1523C4.94763 28.6201 7.68107 28.5991 10.6649 27.5958L9.70868 24.7522C7.21584 25.5905 5.05598 25.5614 3.68897 25.2346L2.99129 28.1523ZM9.67568 27.5842L9.68148 27.5863L10.7037 24.7658L10.6979 24.7637L9.67568 27.5842Z" fill="#ECF3FB"/>
</g>
</g>
<path d="M38.6373 23L39.2373 5.96H42.5253L48.5013 18.08L54.4293 5.96H57.7173L58.1733 23H54.3813L54.1653 14.12L49.7733 23H46.9173L42.5733 14.216L42.2613 23H38.6373ZM73.5403 9.344H65.7163V12.728H73.0363V16.112H65.7163V19.616H73.7803L73.5403 23H61.8763V5.96H73.5403V9.344ZM76.2547 23V5.96H80.1667V19.568H87.5347L87.2947 23H76.2547ZM96.7468 23.24C94.9548 23.256 93.4188 22.928 92.1388 22.256C90.8588 21.584 89.8748 20.616 89.1868 19.352C88.4988 18.088 88.1548 16.568 88.1548 14.792C88.1548 13.016 88.5148 11.448 89.2348 10.088C89.9708 8.712 91.0028 7.64 92.3308 6.872C93.6588 6.104 95.2348 5.72 97.0588 5.72C98.6748 5.72 100.091 6.072 101.307 6.776C102.523 7.48 103.467 8.464 104.139 9.728C104.827 10.976 105.171 12.448 105.171 14.144C105.171 15.968 104.811 17.56 104.091 18.92C103.371 20.28 102.371 21.336 101.091 22.088C99.8268 22.84 98.3788 23.224 96.7468 23.24ZM96.6028 19.76C97.9628 19.76 99.0668 19.272 99.9148 18.296C100.763 17.304 101.187 15.936 101.187 14.192C101.187 12.672 100.803 11.464 100.035 10.568C99.2668 9.656 98.2348 9.2 96.9388 9.2C95.9948 9.2 95.1628 9.432 94.4428 9.896C93.7228 10.36 93.1548 11.008 92.7388 11.84C92.3388 12.656 92.1388 13.616 92.1388 14.72C92.1388 16.32 92.5308 17.56 93.3148 18.44C94.1148 19.32 95.2108 19.76 96.6028 19.76ZM108.129 23V5.96H112.041V12.704H119.169V5.96H123.105V23H119.169V16.136H112.041V23H108.129ZM124.612 23L132.004 5.96H135.292L142.396 23H138.412L137.044 19.52H130.012L128.596 23H124.612ZM131.356 16.256H135.748L133.588 10.76L131.356 16.256Z" fill="#4A88D9"/>
<defs>
<filter id="filter0_i_2425_6663" x="-7.5" y="-3.01343" width="36" height="31.5129" filterUnits="userSpaceOnUse" color-interpolation-filters="sRGB">
<feFlood flood-opacity="0" result="BackgroundImageFix"/>
<feBlend mode="normal" in="SourceGraphic" in2="BackgroundImageFix" result="shape"/>
<feColorMatrix in="SourceAlpha" type="matrix" values="0 0 0 0 0 0 0 0 0 0 0 0 0 0 0 0 0 0 127 0" result="hardAlpha"/>
<feOffset dx="-8" dy="-4"/>
<feGaussianBlur stdDeviation="7"/>
<feComposite in2="hardAlpha" operator="arithmetic" k2="-1" k3="1"/>
<feColorMatrix type="matrix" values="0 0 0 0 0 0 0 0 0 0 0 0 0 0 0 0 0 0 0.25 0"/>
<feBlend mode="normal" in2="shape" result="effect1_innerShadow_2425_6663"/>
</filter>
</defs>
</svg>
