<svg width="23" height="20" viewBox="0 0 23 20" fill="none" xmlns="http://www.w3.org/2000/svg">
<path d="M5.08333 17.5C4.57917 17.5 4.14772 17.3369 3.789 17.0108C3.43028 16.6847 3.25061 16.2922 3.25 15.8333V4.16667C3.25 3.70833 3.42967 3.31611 3.789 2.99C4.14833 2.66389 4.57978 2.50056 5.08333 2.5H17.9167C18.4208 2.5 18.8526 2.66333 19.2119 2.99C19.5713 3.31667 19.7506 3.70889 19.75 4.16667V15.8333C19.75 16.2917 19.5706 16.6842 19.2119 17.0108C18.8532 17.3375 18.4214 17.5006 17.9167 17.5H5.08333ZM6 14.1667H17L13.5625 10L10.8125 13.3333L8.75 10.8333L6 14.1667Z" fill="white"/>
</svg>
