<svg width="10" height="10" viewBox="0 0 10 10" fill="none" xmlns="http://www.w3.org/2000/svg">
<g clip-path="url(#clip0_4_1092)">
<path d="M5 0C2.23828 0 0 2.23828 0 5C0 7.76172 2.23828 10 5 10C7.76172 10 10 7.76172 10 5C10 2.23828 7.76172 0 5 0ZM1.25 5C1.25 2.92773 2.92969 1.25 5 1.25C5.82227 1.25 6.58203 1.51758 7.19922 1.9668L1.9668 7.19922C1.51758 6.58203 1.25 5.82227 1.25 5ZM5 8.75C4.17773 8.75 3.41797 8.48242 2.80078 8.0332L8.0332 2.80078C8.48242 3.41992 8.75 4.17773 8.75 5C8.75 7.07227 7.07031 8.75 5 8.75Z" fill="#BD2F2F"/>
</g>
<defs>
<clipPath id="clip0_4_1092">
<rect width="10" height="10" fill="white"/>
</clipPath>
</defs>
</svg>
