<svg width="16" height="18" viewBox="0 0 16 18" fill="none" xmlns="http://www.w3.org/2000/svg">
<path d="M7.51032 8.25C9.19648 8.25 10.5634 6.73896 10.5634 4.875C10.5634 3.01104 9.19648 1.5 7.51032 1.5C5.82417 1.5 4.45728 3.01104 4.45728 4.875C4.45728 6.73896 5.82417 8.25 7.51032 8.25Z" stroke="black" stroke-width="2"/>
<path d="M10.5634 9.6001H10.7783C11.2247 9.60024 11.6557 9.78057 11.9903 10.1072C12.3249 10.4339 12.5401 10.8843 12.5955 11.374L12.8342 13.4827C12.8557 13.6727 12.8404 13.8655 12.7893 14.0484C12.7382 14.2313 12.6525 14.4002 12.5379 14.5437C12.4232 14.6872 12.2823 14.8021 12.1244 14.8808C11.9666 14.9595 11.7954 15.0001 11.6222 15.0001H3.39849C3.22531 15.0001 3.0541 14.9595 2.89623 14.8808C2.73836 14.8021 2.59743 14.6872 2.4828 14.5437C2.36817 14.4002 2.28247 14.2313 2.23137 14.0484C2.18027 13.8655 2.16495 13.6727 2.18643 13.4827L2.42457 11.374C2.47995 10.8841 2.69532 10.4334 3.03019 10.1068C3.36506 9.78009 3.79635 9.59991 4.24296 9.6001H4.45729" stroke="black" stroke-width="2" stroke-linecap="round" stroke-linejoin="round"/>
</svg>
