<svg width="24" height="23" viewBox="0 0 24 23" fill="none" xmlns="http://www.w3.org/2000/svg">
<g filter="url(#filter0_i_38_2)">
<path d="M3.27989 5.07851C3.47644 5.36618 3.72024 5.56456 3.98622 5.7031C4.95309 4.68445 6.17084 3.86863 7.54708 3.32035C7.50807 3.06754 7.41565 2.81276 7.24495 2.56291C6.91566 2.08095 6.34699 1.84257 5.8155 1.92171C5.31183 1.9967 4.86958 2.35116 4.69442 2.98936C4.0167 2.89201 3.50402 3.1434 3.23336 3.55941C2.94829 3.99885 2.9506 4.59655 3.27989 5.07851Z" fill="#1D4392"/>
<path d="M4.52286 5.90469C4.89732 6.0016 5.29393 6.02994 5.64426 6.05478C5.68051 6.05735 5.71625 6.05992 5.75142 6.06254C5.81637 6.06844 5.87832 6.07334 5.93631 6.07721C6.06163 6.08704 6.19206 6.09504 6.31416 6.08883C6.45634 6.08142 6.60581 6.0541 6.73305 5.97336C6.86031 5.89263 6.94542 5.77112 7.00868 5.6482C7.07201 5.52497 7.12105 5.38432 7.1666 5.2525C7.19091 5.18209 7.2157 5.11184 7.24098 5.04175C7.25981 4.98919 7.27906 4.93547 7.29832 4.88076C7.33141 4.79349 7.36873 4.6842 7.40469 4.56191C7.46198 4.37661 7.51178 4.18417 7.54109 3.98979C7.57396 3.77155 7.58187 3.54674 7.54694 3.32034C6.17071 3.86863 4.95296 4.68445 3.98608 5.7031C4.15801 5.79264 4.33918 5.85719 4.52286 5.90469Z" fill="#1D4392"/>
<path d="M22.1005 12.7395C22.3535 10.6009 21.7424 8.5435 20.5161 6.84329C17.2807 15.1868 12.4277 18.7887 8.35938 20.0668L8.36413 20.0684C9.15817 20.3381 9.99497 20.5385 10.8325 20.6296C16.4659 21.2487 21.5115 17.7159 22.1005 12.7395Z" fill="#052DA6"/>
<path fill-rule="evenodd" clip-rule="evenodd" d="M7.92466 4.04342C7.96585 3.77014 7.97332 3.47865 7.91571 3.18127C9.45833 2.63116 11.1826 2.41115 12.9657 2.60712C16.1782 2.96018 18.8889 4.58724 20.5163 6.84331C17.2809 15.1868 12.4279 18.7887 8.35959 20.0668C6.11244 20.7728 4.10465 20.7697 2.74104 20.465C3.37479 19.892 3.84643 19.1727 4.11137 18.375C4.27246 17.8871 4.0771 17.3744 3.74052 16.9778C2.21182 15.1766 1.4148 12.8882 1.69778 10.4972C1.90008 8.78786 2.6282 7.24883 3.72535 5.98988C3.95087 6.11752 4.18818 6.20469 4.42258 6.2653C4.83376 6.3717 5.26207 6.40206 5.60493 6.42637L5.61597 6.42715C5.65091 6.42963 5.68505 6.43207 5.7185 6.43456C5.78432 6.44052 5.84757 6.44552 5.90734 6.44953C6.0336 6.45941 6.18549 6.46927 6.33472 6.46168C6.50777 6.45266 6.7368 6.41811 6.94626 6.28522C7.15573 6.15232 7.27905 5.9635 7.35604 5.81389C7.4326 5.66491 7.48925 5.50098 7.5332 5.37378L7.53438 5.37037C7.55815 5.30155 7.58239 5.23286 7.6071 5.16434C7.62543 5.11316 7.64479 5.05916 7.66396 5.00473C7.69978 4.90994 7.73915 4.79424 7.7769 4.66613C7.8371 4.47126 7.89192 4.26089 7.92466 4.04342ZM15.6801 8.74423C15.7961 8.93774 16.4536 9.00497 16.8916 8.76056C17.3301 8.51714 17.5985 7.93478 17.4828 7.74048C17.4733 7.72464 17.4638 7.70909 17.4545 7.6938C17.3011 7.44189 17.1881 7.25637 17.6924 6.90082C18.1733 6.56179 18.3548 6.88175 18.5037 7.14447C18.5204 7.17401 18.5368 7.20283 18.553 7.22991C18.7383 7.5396 18.4149 8.66994 17.2316 9.32805C16.0482 9.98615 14.871 9.69137 14.6856 9.38202C14.6696 9.35519 14.6521 9.32759 14.6341 9.29922C14.4719 9.04346 14.2736 8.73097 14.8202 8.4989C15.3929 8.25579 15.5028 8.44278 15.6524 8.69746C15.6615 8.7128 15.6706 8.72844 15.6801 8.74423Z" fill="#4A86D9"/>
<path d="M16.8914 8.76054C16.4535 9.00495 15.796 8.93772 15.6799 8.74421C15.6705 8.72842 15.6614 8.71278 15.6523 8.69744C15.5027 8.44276 15.3927 8.25577 14.8201 8.49888C14.2735 8.73095 14.4717 9.04344 14.634 9.2992C14.6519 9.32757 14.6695 9.35517 14.6855 9.382C14.8709 9.69135 16.0481 9.98613 17.2314 9.32803C18.4148 8.66992 18.7382 7.53958 18.5529 7.22989C18.5366 7.20281 18.5203 7.17399 18.5036 7.14445C18.3546 6.88172 18.1732 6.56177 17.6923 6.9008C17.1879 7.25635 17.3009 7.44187 17.4544 7.69378C17.4637 7.70907 17.4732 7.72462 17.4826 7.74046C17.5983 7.93476 17.33 8.51712 16.8914 8.76054Z" fill="#052DA6"/>
<mask id="mask0_38_2" style="mask-type:luminance" maskUnits="userSpaceOnUse" x="0" y="0" width="24" height="23">
<path d="M23.7982 0H0V22.2333H23.7982V0Z" fill="white"/>
<path d="M3.27989 5.07851C3.47644 5.36618 3.72024 5.56456 3.98622 5.7031C4.95309 4.68445 6.17084 3.86863 7.54708 3.32035C7.50807 3.06754 7.41565 2.81276 7.24495 2.56291C6.91566 2.08095 6.34699 1.84257 5.8155 1.92171C5.31183 1.9967 4.86958 2.35116 4.69442 2.98936C4.0167 2.89201 3.50402 3.1434 3.23336 3.55941C2.94829 3.99885 2.9506 4.59655 3.27989 5.07851Z" fill="black"/>
<path d="M4.52286 5.90469C4.89732 6.0016 5.29393 6.02994 5.64426 6.05478C5.68051 6.05735 5.71625 6.05992 5.75142 6.06254C5.81637 6.06844 5.87832 6.07334 5.93631 6.07721C6.06163 6.08704 6.19206 6.09504 6.31416 6.08883C6.45634 6.08142 6.60581 6.0541 6.73305 5.97336C6.86031 5.89263 6.94542 5.77112 7.00868 5.6482C7.07201 5.52497 7.12105 5.38432 7.1666 5.2525C7.19091 5.18209 7.2157 5.11184 7.24098 5.04175C7.25981 4.98919 7.27906 4.93547 7.29832 4.88076C7.33141 4.79349 7.36873 4.6842 7.40469 4.56191C7.46198 4.37661 7.51178 4.18417 7.54109 3.98979C7.57396 3.77155 7.58187 3.54674 7.54694 3.32034C6.17071 3.86863 4.95296 4.68445 3.98608 5.7031C4.15801 5.79264 4.33918 5.85719 4.52286 5.90469Z" fill="black"/>
<path d="M22.1005 12.7395C22.3535 10.6009 21.7424 8.5435 20.5161 6.84329C17.2807 15.1868 12.4277 18.7887 8.35938 20.0668L8.36413 20.0684C9.15817 20.3381 9.99497 20.5385 10.8325 20.6296C16.4659 21.2487 21.5115 17.7159 22.1005 12.7395Z" fill="black"/>
<path fill-rule="evenodd" clip-rule="evenodd" d="M7.92466 4.04342C7.96585 3.77014 7.97332 3.47865 7.91571 3.18127C9.45833 2.63116 11.1826 2.41115 12.9657 2.60712C16.1782 2.96018 18.8889 4.58724 20.5163 6.84331C17.2809 15.1868 12.4279 18.7887 8.35959 20.0668C6.11244 20.7728 4.10465 20.7697 2.74104 20.465C3.37479 19.892 3.84643 19.1727 4.11137 18.375C4.27246 17.8871 4.0771 17.3744 3.74052 16.9778C2.21182 15.1766 1.4148 12.8882 1.69778 10.4972C1.90008 8.78786 2.6282 7.24883 3.72535 5.98988C3.95087 6.11752 4.18818 6.20469 4.42258 6.2653C4.83376 6.3717 5.26207 6.40206 5.60493 6.42637L5.61597 6.42715C5.65091 6.42963 5.68505 6.43207 5.7185 6.43456C5.78432 6.44052 5.84757 6.44552 5.90734 6.44953C6.0336 6.45941 6.18549 6.46927 6.33472 6.46168C6.50777 6.45266 6.7368 6.41811 6.94626 6.28522C7.15573 6.15232 7.27905 5.9635 7.35604 5.81389C7.4326 5.66491 7.48925 5.50098 7.5332 5.37378L7.53438 5.37037C7.55815 5.30155 7.58239 5.23286 7.6071 5.16434C7.62543 5.11316 7.64479 5.05916 7.66396 5.00473C7.69978 4.90994 7.73915 4.79424 7.7769 4.66613C7.8371 4.47126 7.89192 4.26089 7.92466 4.04342ZM15.6801 8.74423C15.7961 8.93774 16.4536 9.00497 16.8916 8.76056C17.3301 8.51714 17.5985 7.93478 17.4828 7.74048C17.4733 7.72464 17.4638 7.70909 17.4545 7.6938C17.3011 7.44189 17.1881 7.25637 17.6924 6.90082C18.1733 6.56179 18.3548 6.88175 18.5037 7.14447C18.5204 7.17401 18.5368 7.20283 18.553 7.22991C18.7383 7.5396 18.4149 8.66994 17.2316 9.32805C16.0482 9.98615 14.871 9.69137 14.6856 9.38202C14.6696 9.35519 14.6521 9.32759 14.6341 9.29922C14.4719 9.04346 14.2736 8.73097 14.8202 8.4989C15.3929 8.25579 15.5028 8.44278 15.6524 8.69746C15.6615 8.7128 15.6706 8.72844 15.6801 8.74423Z" fill="black"/>
<path d="M16.8914 8.76054C16.4535 9.00495 15.796 8.93772 15.6799 8.74421C15.6705 8.72842 15.6614 8.71278 15.6523 8.69744C15.5027 8.44276 15.3927 8.25577 14.8201 8.49888C14.2735 8.73095 14.4717 9.04344 14.634 9.2992C14.6519 9.32757 14.6695 9.35517 14.6855 9.382C14.8709 9.69135 16.0481 9.98613 17.2314 9.32803C18.4148 8.66992 18.7382 7.53958 18.5529 7.22989C18.5366 7.20281 18.5203 7.17399 18.5036 7.14445C18.3546 6.88172 18.1732 6.56177 17.6923 6.9008C17.1879 7.25635 17.3009 7.44187 17.4544 7.69378C17.4637 7.70907 17.4732 7.72462 17.4826 7.74046C17.5983 7.93476 17.33 8.51712 16.8914 8.76054Z" fill="black"/>
</mask>
<g mask="url(#mask0_38_2)">
<path d="M7.91552 3.18126L8.13495 3.71846C8.41167 3.6198 8.57391 3.35107 8.52114 3.07884L7.91552 3.18126ZM3.72515 5.98988L3.40626 6.48168C3.66888 6.6303 4.00857 6.57537 4.20244 6.35292L3.72515 5.98988ZM2.90463 3.36151L2.37896 3.06244L2.37847 3.0632L2.90463 3.36151ZM4.42504 2.59525L4.42088 3.17024C4.67215 3.17182 4.89922 3.03054 4.99452 2.81334L4.42504 2.59525ZM21.0947 7.03916C21.2105 6.74059 21.0453 6.41085 20.7258 6.30269C20.4061 6.19452 20.0532 6.34888 19.9374 6.64745L21.0947 7.03916ZM8.15383 20.6088C8.47322 20.7173 8.82641 20.5634 8.94253 20.2649C9.05873 19.9665 8.89395 19.6366 8.57448 19.528L8.15383 20.6088ZM8.21275 19.4109C7.89804 19.2908 7.53875 19.4318 7.41022 19.7258C7.2817 20.0198 7.4326 20.3555 7.74728 20.4755L8.21275 19.4109ZM16.8914 8.76056L16.5769 8.26629L16.5757 8.26698L16.8914 8.76056ZM15.6799 8.74423L15.1425 9.02452L15.143 9.02529L15.6799 8.74423ZM18.5528 7.22991L19.0901 6.94939L19.0893 6.94796L18.5528 7.22991ZM17.4826 7.74048L18.0205 7.46103L18.0197 7.45968L17.4826 7.74048ZM7.69602 2.64407C7.56458 2.69093 7.43438 2.74007 7.30546 2.79143L7.78831 3.84926C7.90272 3.80368 8.01826 3.76007 8.13495 3.71846L7.69602 2.64407ZM3.52554 5.3216C3.43071 5.42151 3.33813 5.52328 3.24787 5.62684L4.20244 6.35292C4.28175 6.26192 4.36313 6.17247 4.44653 6.0846L3.52554 5.3216ZM7.30546 2.79143C5.8474 3.37232 4.55426 4.23779 3.52554 5.3216L4.44653 6.0846C5.35156 5.1311 6.49392 4.36495 7.78831 3.84926L7.30546 2.79143ZM4.04405 5.49808C3.83477 5.37963 3.63886 5.21444 3.47489 4.97445L2.4373 5.5932C2.70891 5.99072 3.04546 6.27748 3.40626 6.48168L4.04405 5.49808ZM3.47489 4.97445C3.18662 4.55252 3.18883 4.03281 3.43098 3.65952L2.37847 3.0632C1.88315 3.82673 1.90751 4.81777 2.4373 5.5932L3.47489 4.97445ZM3.43098 3.65952C3.62607 3.35966 3.96399 3.16735 4.42088 3.17024L4.42919 2.02026C3.55231 2.01473 2.80545 2.40689 2.37896 3.06244L3.43098 3.65952ZM4.99452 2.81334C5.18011 2.39035 5.50522 2.17234 5.85302 2.12056L5.6593 0.984885C4.85033 1.10533 4.18929 1.61655 3.85555 2.37716L4.99452 2.81334ZM5.85302 2.12056C6.28137 2.05677 6.76266 2.24701 7.04959 2.66697L8.08719 2.04822C7.55619 1.27106 6.6067 0.843818 5.6593 0.984885L5.85302 2.12056ZM7.04959 2.66697C7.19072 2.87354 7.27045 3.08025 7.30986 3.28368L8.52114 3.07884C8.45483 2.73671 8.31927 2.38798 8.08719 2.04822L7.04959 2.66697ZM8.55561 20.6118C12.8349 19.2675 17.8084 15.514 21.0947 7.03916L19.9374 6.64745C16.7529 14.8597 12.0205 18.31 8.16327 19.5218L8.55561 20.6118ZM8.57448 19.528C8.57235 19.5273 8.5703 19.5266 8.56874 19.5261L8.15005 20.6076C8.15161 20.6081 8.15276 20.6085 8.15383 20.6088L8.57448 19.528ZM8.56874 19.5261C8.36186 19.4562 8.34257 19.4605 8.21275 19.4109L7.74728 20.4755C7.87744 20.5252 8.09417 20.5886 8.15005 20.6076L8.56874 19.5261ZM16.5757 8.26698C16.4845 8.31788 16.3379 8.3487 16.1943 8.34226C16.1257 8.3392 16.0845 8.32854 16.0726 8.3244C16.0672 8.32248 16.0805 8.32632 16.1039 8.3418C16.1261 8.3566 16.1753 8.39386 16.2169 8.46317L15.143 9.02529C15.2772 9.24908 15.5037 9.35327 15.6406 9.40118C15.7982 9.45646 15.9705 9.4836 16.1355 9.49096C16.4592 9.50545 16.8603 9.44772 17.207 9.25421L16.5757 8.26698ZM14.1484 9.66277C14.2944 9.90657 14.5551 10.0476 14.7565 10.1267C14.9825 10.2155 15.2518 10.2727 15.5417 10.2915C16.1252 10.3292 16.8412 10.2143 17.5462 9.82208L16.9166 8.834C16.4383 9.09996 15.9739 9.16666 15.6267 9.1442C15.4513 9.13285 15.3174 9.0995 15.2336 9.06661C15.1252 9.02398 15.1692 9.0121 15.2226 9.10119L14.1484 9.66277ZM17.5462 9.82208C18.2509 9.43016 18.7074 8.89327 18.9611 8.39539C19.0873 8.14768 19.1686 7.89913 19.201 7.67167C19.2298 7.47023 19.2339 7.18976 19.0901 6.94939L18.0156 7.51043C17.9644 7.4249 17.9977 7.40185 17.9808 7.52001C17.9677 7.61213 17.929 7.74541 17.8496 7.9012C17.6921 8.21047 17.3952 8.56774 16.9166 8.834L17.5462 9.82208ZM16.9447 8.01996C16.9041 7.95172 16.8965 7.89537 16.8947 7.87414C16.8929 7.85098 16.8956 7.84186 16.8941 7.85037C16.8908 7.86831 16.8778 7.9127 16.8446 7.97449C16.7749 8.10421 16.6697 8.21477 16.5769 8.26629L17.2058 9.2549C17.5515 9.06293 17.7997 8.76056 17.9451 8.48969C18.0193 8.35123 18.0791 8.19836 18.1073 8.04487C18.1314 7.91331 18.1515 7.68102 18.0205 7.46103L16.9447 8.01996ZM18.0197 7.45968C18.0089 7.44173 17.9984 7.42442 17.9892 7.40936L16.9194 7.97817C16.9289 7.99366 16.9373 8.00754 16.9455 8.02126L18.0197 7.45968ZM17.9892 7.40936C17.969 7.37615 17.9558 7.35437 17.9447 7.33466C17.9341 7.31574 17.9303 7.3072 17.9295 7.30523C17.9288 7.30379 17.933 7.31338 17.9363 7.33139C17.9397 7.35056 17.9414 7.37575 17.9377 7.40425C17.9341 7.4328 17.9262 7.45604 17.9186 7.47219C17.9115 7.4874 17.9065 7.49234 17.911 7.48687C17.9156 7.48114 17.9281 7.46708 17.9534 7.44471C17.9787 7.42242 18.0142 7.39421 18.0629 7.35981L17.3215 6.44182C17.0398 6.64044 16.7623 6.90082 16.7154 7.26809C16.6714 7.61355 16.8696 7.89637 16.9194 7.97817L17.9892 7.40936ZM18.0629 7.35981C18.0978 7.33525 18.119 7.32444 18.1272 7.32074C18.135 7.31718 18.1261 7.32234 18.1024 7.32605C18.0771 7.33 18.0418 7.33118 18.0011 7.32364C17.9607 7.31614 17.9273 7.30231 17.9027 7.28835C17.8794 7.27513 17.867 7.26353 17.8644 7.26098C17.8619 7.2586 17.8655 7.26168 17.8747 7.27412C17.8838 7.28646 17.8953 7.30367 17.9101 7.32811C17.9252 7.35306 17.9403 7.37959 17.9596 7.41358L19.0473 6.87536C19.0133 6.81529 18.9576 6.71563 18.8883 6.62165C18.8193 6.52803 18.709 6.40042 18.542 6.30561C18.3582 6.20122 18.1368 6.15472 17.8995 6.19177C17.6809 6.2259 17.488 6.32449 17.3215 6.44182L18.0629 7.35981ZM17.9596 7.41358C17.9755 7.44178 17.9956 7.47726 18.0165 7.51186L19.0893 6.94796C19.0775 6.9284 19.0649 6.90625 19.0473 6.87536L17.9596 7.41358ZM15.2226 9.10119C15.2021 9.06707 15.1805 9.03311 15.1634 9.00604L14.1044 9.59231C14.1232 9.62198 14.1368 9.64337 14.1484 9.66277L15.2226 9.10119ZM15.1634 9.00604C15.1424 8.97292 15.126 8.94709 15.1111 8.92194C15.0965 8.89733 15.0866 8.87893 15.0798 8.86482C15.0731 8.85064 15.0716 8.8452 15.0721 8.84696C15.0727 8.84895 15.0763 8.86222 15.0766 8.8843C15.0768 8.90753 15.0733 8.93712 15.0619 8.96901C15.0503 9.00114 15.0344 9.0259 15.0205 9.04231C15.0075 9.05772 15 9.06147 15.0075 9.05641C15.0153 9.05112 15.0356 9.03893 15.0746 9.02237L14.5654 7.97541C14.3741 8.0566 14.1909 8.16815 14.0546 8.32946C13.9082 8.50257 13.8436 8.70045 13.8457 8.89603C13.8477 9.07581 13.9055 9.22807 13.9555 9.33295C14.0054 9.43752 14.0673 9.53374 14.1044 9.59231L15.1634 9.00604ZM15.0746 9.02237C15.1298 8.99891 15.1725 8.98366 15.2044 8.974C15.2365 8.96426 15.2539 8.96127 15.2593 8.9605C15.2643 8.95989 15.254 8.96181 15.2325 8.95974C15.2097 8.95751 15.18 8.95138 15.1478 8.93819C15.1158 8.92508 15.0907 8.90883 15.073 8.89472C15.0565 8.88146 15.0489 8.87188 15.0496 8.87272C15.0505 8.87395 15.0562 8.88108 15.0679 8.89948C15.08 8.91864 15.0931 8.94065 15.1128 8.97423L16.1918 8.42069C16.1463 8.34326 15.9884 8.0267 15.6417 7.88479C15.2683 7.732 14.8811 7.8414 14.5654 7.97541L15.0746 9.02237ZM15.1128 8.97423C15.1217 8.98933 15.1319 9.00673 15.1425 9.02452L16.2173 8.46393C16.2091 8.45021 16.2009 8.43633 16.1918 8.42069L15.1128 8.97423ZM5.75137 6.06254L5.87049 4.91794C5.86341 4.91729 5.85633 4.91671 5.84924 4.91618L5.75137 6.06254ZM5.93626 6.07721L6.03928 4.93124C6.03417 4.93084 6.02906 4.93047 6.02394 4.93013L5.93626 6.07721ZM6.3141 6.08883L6.381 7.23714L6.3827 7.23704L6.3141 6.08883ZM7.24093 5.04176L8.4074 5.40897L8.40822 5.40681L7.24093 5.04176ZM7.29827 4.88076L6.13798 4.49676C6.13486 4.50497 6.13184 4.51323 6.12892 4.52152L7.29827 4.88076ZM7.40464 4.56191L6.22205 4.24274C6.22056 4.24757 6.2191 4.25241 6.21767 4.25726L7.40464 4.56191ZM7.91552 3.18126L7.47653 2.10686C6.92321 2.30418 6.59874 2.84164 6.70424 3.38611L7.91552 3.18126ZM7.7767 4.66613L6.59399 4.34737C6.59259 4.35189 6.59122 4.35642 6.58988 4.36097L7.7767 4.66613ZM7.66377 5.00473L6.50302 4.62194C6.5001 4.62966 6.49727 4.63742 6.49452 4.64521L7.66377 5.00473ZM7.60717 5.16362L8.7734 5.53155L8.77422 5.52916L7.60717 5.16362ZM6.33504 6.46165L6.4009 7.61L6.40363 7.60987L6.33504 6.46165ZM6.33504 6.46165L6.26865 5.31332L6.26762 5.31338L6.33504 6.46165ZM5.90715 6.44952L6.00991 5.30354C6.00503 5.30316 6.00016 5.30281 5.99528 5.30248L5.90715 6.44952ZM5.7183 6.43456L5.83696 5.28991C5.82996 5.28928 5.82296 5.28871 5.81596 5.28819L5.7183 6.43456ZM3.72515 5.98988L4.36295 5.00629C3.83772 4.70902 3.15831 4.81889 2.77059 5.2638L3.72515 5.98988ZM3.23318 3.55941L2.18129 2.96211L2.18048 2.96337L3.23318 3.55941ZM4.69423 2.98936L4.50716 4.126C5.13279 4.21587 5.72938 3.84782 5.88661 3.27499L4.69423 2.98936ZM10.8325 20.6296L10.9763 19.4875L10.9748 19.4873L10.8325 20.6296ZM8.36416 20.0684L8.78481 18.9877L8.78358 18.9872L8.36416 20.0684ZM2.74084 20.465L1.88475 19.6387C1.56188 19.9307 1.43495 20.3638 1.55358 20.7687C1.67221 21.1736 2.01757 21.4859 2.45458 21.5835L2.74084 20.465ZM4.11118 18.375L5.28681 18.7159L5.28744 18.714L4.11118 18.375ZM8.3594 20.0668L8.77882 18.9856C8.51712 18.897 8.23097 18.8939 7.96705 18.9768L8.3594 20.0668ZM5.73737 4.90808C5.36877 4.88194 5.09157 4.85858 4.85143 4.79643L4.19418 7.01295C4.70297 7.14462 5.21898 7.17794 5.55105 7.20149L5.73737 4.90808ZM5.84924 4.91618C5.81179 4.91339 5.77425 4.9107 5.73737 4.90808L5.55105 7.20149C5.58665 7.20401 5.62062 7.20645 5.6535 7.2089L5.84924 4.91618ZM6.02394 4.93013C5.9773 4.92702 5.92587 4.92297 5.87049 4.91794L5.63225 7.20714C5.70677 7.21391 5.77924 7.21966 5.84858 7.22429L6.02394 4.93013ZM6.2472 4.94053C6.21702 4.94207 6.16004 4.94072 6.03928 4.93124L5.83324 7.22318C5.96311 7.23336 6.167 7.24802 6.381 7.23714L6.2472 4.94053ZM6.04147 5.022C6.11128 4.9777 6.17329 4.95714 6.2095 4.94805C6.24343 4.93952 6.25926 4.9399 6.2455 4.94062L6.3827 7.23704C6.6276 7.22427 7.03347 7.17284 7.42454 6.92473L6.04147 5.022ZM5.89924 5.1499C5.89115 5.16562 5.89427 5.15615 5.91219 5.13396C5.93122 5.11039 5.97229 5.06589 6.04147 5.022L7.42454 6.92473C7.81154 6.67922 8.01416 6.34836 8.11805 6.14648L5.89924 5.1499ZM5.99514 4.89917C5.94519 5.04373 5.92042 5.10871 5.89924 5.1499L8.11805 6.14648C8.22358 5.94123 8.29678 5.72491 8.33798 5.60582L5.99514 4.89917ZM6.07443 4.67455C6.04745 4.74933 6.02109 4.82402 5.99514 4.89917L8.33798 5.60582C8.36063 5.54017 8.38385 5.47435 8.4074 5.40897L6.07443 4.67455ZM6.12892 4.52152C6.11084 4.57288 6.09262 4.62377 6.07365 4.67671L8.40822 5.40681C8.42693 5.35462 8.4472 5.29808 8.46764 5.24001L6.12892 4.52152ZM6.21767 4.25726C6.18938 4.35348 6.16091 4.43627 6.13798 4.49676L8.45853 5.26477C8.50177 5.1507 8.54798 5.01493 8.59163 4.86656L6.21767 4.25726ZM6.32214 3.82936C6.30365 3.95198 6.26981 4.08831 6.22205 4.24274L8.5872 4.88108C8.65408 4.66491 8.71982 4.41637 8.75994 4.15022L6.32214 3.82936ZM6.32854 3.48441C6.34329 3.58006 6.34272 3.69271 6.32214 3.82936L8.75994 4.15022C8.80516 3.8504 8.82034 3.51343 8.76528 3.15628L6.32854 3.48441ZM6.70424 3.38611C6.73336 3.53641 6.73294 3.70125 6.70554 3.88318L9.14342 4.20385C9.19832 3.83922 9.21285 3.42087 9.12677 2.97642L6.70424 3.38611ZM6.70554 3.88318C6.68353 4.02919 6.6446 4.18346 6.59399 4.34737L8.95944 4.98488C9.02911 4.75905 9.09985 4.49278 9.14342 4.20385L6.70554 3.88318ZM6.58988 4.36097C6.55967 4.46354 6.52894 4.55332 6.50302 4.62194L8.82453 5.38751C8.87024 5.26654 8.91824 5.12494 8.96354 4.97128L6.58988 4.36097ZM6.49452 4.64521C6.47647 4.69643 6.45835 4.74702 6.43988 4.79857L8.77422 5.52916C8.79236 5.47836 8.81271 5.42187 8.83298 5.36424L6.49452 4.64521ZM6.43988 4.79857L6.43955 4.7995L8.77422 5.52916L8.77455 5.52844L6.43988 4.79857ZM6.44041 4.79711C6.414 4.87035 6.38808 4.94376 6.36268 5.01734L8.70554 5.72374C8.72761 5.65966 8.75043 5.59537 8.7734 5.53155L6.44041 4.79711ZM6.36268 5.01734L6.36162 5.0204L8.70439 5.72715L8.70554 5.72374L6.36268 5.01734ZM6.36162 5.0204C6.339 5.08585 6.32 5.14052 6.29908 5.19458C6.27829 5.24827 6.26064 5.28799 6.24616 5.31616L8.46526 6.31218C8.58359 6.08188 8.66409 5.84385 8.70439 5.72715L6.36162 5.0204ZM6.24616 5.31616C6.23861 5.33084 6.23259 5.34127 6.22739 5.34954C6.22218 5.35782 6.21892 5.36205 6.21798 5.36321C6.21605 5.3656 6.22709 5.35125 6.25453 5.33384L7.6376 7.23658C8.10681 6.93887 8.34766 6.54068 8.46526 6.31218L6.24616 5.31616ZM6.25453 5.33384C6.26802 5.32528 6.28036 5.31927 6.29007 5.31527C6.29954 5.31137 6.30567 5.30973 6.30717 5.30935C6.30855 5.30901 6.30613 5.3097 6.29898 5.31066C6.29182 5.31161 6.28134 5.31266 6.26644 5.31344L6.40363 7.60987C6.67954 7.59548 7.16439 7.5368 7.6376 7.23658L6.25453 5.33384ZM6.26762 5.31338C6.24286 5.31464 6.20839 5.31486 6.16224 5.3131C6.11617 5.31135 6.06715 5.30802 6.00991 5.30354L5.80438 7.59551C5.93632 7.60583 6.16042 7.62223 6.4009 7.61L6.26762 5.31338ZM5.99528 5.30248C5.9465 5.29921 5.89346 5.29502 5.83696 5.28991L5.59966 7.5792C5.67479 7.586 5.74825 7.59183 5.819 7.59657L5.99528 5.30248ZM5.81596 5.28819C5.78034 5.28553 5.74451 5.28296 5.70893 5.28044L5.52261 7.57384C5.55693 7.57628 5.58937 7.57861 5.62066 7.58093L5.81596 5.28819ZM5.70893 5.28044L5.69779 5.27965L5.51161 7.57307L5.52261 7.57384L5.70893 5.28044ZM5.69779 5.27965C5.34006 5.2543 5.02898 5.22897 4.75097 5.15702L4.09379 7.37356C4.63815 7.51443 5.18362 7.54981 5.51161 7.57307L5.69779 5.27965ZM4.75097 5.15702C4.60233 5.11858 4.47344 5.06883 4.36295 5.00629L3.08736 6.97347C3.42792 7.16621 3.77364 7.29077 4.09379 7.37356L4.75097 5.15702ZM4.85143 4.79643C4.74284 4.76835 4.65584 4.73533 4.58546 4.69866L3.3866 6.70753C3.66006 6.84996 3.93542 6.94603 4.19418 7.01295L4.85143 4.79643ZM4.58546 4.69866C4.48538 4.64654 4.397 4.57643 4.31729 4.45976L2.24212 5.69726C2.55551 6.15593 2.95473 6.48258 3.3866 6.70753L4.58546 4.69866ZM4.31729 4.45976C4.27651 4.40006 4.25805 4.33633 4.25672 4.27822C4.25534 4.21853 4.27196 4.17691 4.28587 4.15547L2.18048 2.96337C1.64255 3.79259 1.671 4.86133 2.24212 5.69726L4.31729 4.45976ZM4.28506 4.15672C4.29595 4.13999 4.30363 4.13582 4.31196 4.13235C4.32004 4.12899 4.37564 4.10711 4.50716 4.126L4.8813 1.85272C3.74538 1.68954 2.7275 2.12256 2.18129 2.96211L4.28506 4.15672ZM5.88661 3.27499C5.92542 3.13356 5.97705 3.08034 5.99032 3.06826C6.00222 3.05745 6.0058 3.05786 6.00904 3.05738L5.6216 0.786038C4.57084 0.942481 3.7823 1.68198 3.50187 2.70373L5.88661 3.27499ZM6.00904 3.05738C6.02209 3.05543 6.1223 3.05742 6.20718 3.18165L8.28234 1.94417C7.70865 1.10449 6.67153 0.629701 5.6216 0.786038L6.00904 3.05738ZM6.20718 3.18165C6.27801 3.28532 6.31295 3.38335 6.32854 3.48441L8.76528 3.15628C8.70283 2.75174 8.5529 2.3402 8.28234 1.94417L6.20718 3.18165ZM13.1094 1.46499C11.1271 1.24715 9.20308 1.49119 7.47653 2.10686L8.35447 4.25565C9.71319 3.77112 11.2376 3.57514 12.8217 3.74924L13.1094 1.46499ZM21.5369 6.20064C19.7106 3.6687 16.6807 1.85749 13.1094 1.46499L12.8217 3.74924C15.6754 4.06285 18.0669 5.50577 19.4953 7.48597L21.5369 6.20064ZM23.324 12.8659C23.6112 10.4391 22.9153 8.11165 21.5369 6.20064L19.4953 7.48597C20.5696 8.97538 21.0959 10.7627 20.877 12.6131L23.324 12.8659ZM10.6887 21.7717C16.9336 22.4581 22.6527 18.5376 23.324 12.8659L20.877 12.6131C20.3703 16.8941 15.9984 20.0394 10.9763 19.4875L10.6887 21.7717ZM7.94342 21.1491C8.81205 21.4443 9.74273 21.6689 10.6902 21.7719L10.9748 19.4873C10.2473 19.4083 9.50425 19.2321 8.78481 18.9877L7.94342 21.1491ZM2.93555 18.0342C2.73096 18.6501 2.36799 19.2018 1.88475 19.6387L3.59694 21.2914C4.3812 20.5823 4.9615 19.6952 5.28681 18.7159L2.93555 18.0342ZM2.77577 17.6922C2.85944 17.7908 2.90632 17.8824 2.92608 17.9491C2.94426 18.0104 2.9357 18.0337 2.93491 18.0361L5.28744 18.714C5.6106 17.7351 5.18838 16.833 4.70489 16.2632L2.77577 17.6922ZM0.474098 10.3708C0.152846 13.0852 1.06083 15.6716 2.77577 17.6922L4.70489 16.2632C3.36243 14.6815 2.67636 12.6913 2.92106 10.6236L0.474098 10.3708ZM2.77059 5.2638C1.53026 6.68703 0.703513 8.43242 0.474098 10.3708L2.92106 10.6236C3.09627 9.14328 3.72575 7.81058 4.67973 6.71596L2.77059 5.2638ZM2.45458 21.5835C4.06 21.9422 6.30314 21.9261 8.75174 21.1569L7.96705 18.9768C5.92136 19.6195 4.14892 19.5972 3.02711 19.3466L2.45458 21.5835ZM7.93997 21.148L7.94473 21.1496L8.78358 18.9872L8.77882 18.9856L7.93997 21.148Z" fill="#ECF3FB"/>
</g>
</g>
<defs>
<filter id="filter0_i_38_2" x="-7.58984" y="-3.24353" width="30.9778" height="25.0932" filterUnits="userSpaceOnUse" color-interpolation-filters="sRGB">
<feFlood flood-opacity="0" result="BackgroundImageFix"/>
<feBlend mode="normal" in="SourceGraphic" in2="BackgroundImageFix" result="shape"/>
<feColorMatrix in="SourceAlpha" type="matrix" values="0 0 0 0 0 0 0 0 0 0 0 0 0 0 0 0 0 0 127 0" result="hardAlpha"/>
<feOffset dx="-8" dy="-4"/>
<feGaussianBlur stdDeviation="7"/>
<feComposite in2="hardAlpha" operator="arithmetic" k2="-1" k3="1"/>
<feColorMatrix type="matrix" values="0 0 0 0 0 0 0 0 0 0 0 0 0 0 0 0 0 0 0.25 0"/>
<feBlend mode="normal" in2="shape" result="effect1_innerShadow_38_2"/>
</filter>
</defs>
</svg>
