<svg width="223" height="30" viewBox="0 0 223 30" fill="none" xmlns="http://www.w3.org/2000/svg">
<g filter="url(#filter0_i_776_16528)">
<mask id="path-2-outside-1_776_16528" maskUnits="userSpaceOnUse" x="0.5" y="-0.125" width="29" height="29" fill="black">
<rect fill="white" x="0.5" y="-0.125" width="29" height="29"/>
<path d="M4.4967 6.49913C4.73621 6.87435 5.0333 7.13311 5.35741 7.31381C6.53562 5.98514 8.01955 4.92103 9.6966 4.20587C9.64907 3.87613 9.53645 3.5438 9.32844 3.21791C8.92717 2.58927 8.2342 2.27834 7.58654 2.38156C6.97278 2.47937 6.43386 2.94171 6.22041 3.77415C5.39456 3.64717 4.76982 3.97507 4.44 4.5177C4.09262 5.09087 4.09543 5.87048 4.4967 6.49913Z"/>
<path d="M6.01151 7.57676C6.46782 7.70316 6.95112 7.74013 7.37803 7.77253C7.4222 7.77588 7.46576 7.77923 7.50861 7.78265C7.58776 7.79035 7.66325 7.79674 7.73392 7.80178C7.88663 7.81461 8.04557 7.82504 8.19435 7.81694C8.36761 7.80727 8.54975 7.77164 8.70481 7.66633C8.85988 7.56103 8.9636 7.40254 9.04068 7.2422C9.11785 7.08147 9.17761 6.89801 9.23312 6.72607C9.26274 6.63424 9.29295 6.54261 9.32376 6.45119C9.34671 6.38263 9.37016 6.31256 9.39363 6.2412C9.43395 6.12736 9.47943 5.98482 9.52325 5.8253C9.59307 5.58361 9.65375 5.3326 9.68947 5.07906C9.72952 4.7944 9.73916 4.50117 9.6966 4.20587C8.01955 4.92103 6.53562 5.98514 5.35741 7.31381C5.56691 7.43061 5.78769 7.5148 6.01151 7.57676Z"/>
<path d="M27.4313 16.4917C27.7397 13.7023 26.995 11.0187 25.5006 8.80104C21.558 19.6839 15.6443 24.382 10.6867 26.0491L10.6925 26.0512C11.6601 26.403 12.6798 26.6644 13.7004 26.7832C20.5652 27.5907 26.7136 22.9827 27.4313 16.4917Z"/>
<path fill-rule="evenodd" clip-rule="evenodd" d="M10.1567 5.14901C10.2069 4.79256 10.216 4.41235 10.1458 4.02446C12.0256 3.30693 14.1267 3.01996 16.2996 3.27557C20.2143 3.73608 23.5175 5.85834 25.5006 8.80104C21.558 19.6839 15.6443 24.382 10.6867 26.0491C7.94837 26.9699 5.50172 26.9659 3.84005 26.5685C4.61232 25.8211 5.18705 24.8828 5.50991 23.8424C5.70621 23.206 5.46814 22.5372 5.058 22.0199C3.19515 19.6705 2.22392 16.6857 2.56875 13.567C2.81528 11.3374 3.70255 9.32997 5.03951 7.68787C5.31433 7.85436 5.60351 7.96805 5.88914 8.04711C6.39019 8.1859 6.91212 8.2255 7.32993 8.2572L7.34338 8.25822C7.38596 8.26145 7.42756 8.26464 7.46832 8.26789C7.54853 8.27566 7.6256 8.28218 7.69844 8.28741C7.85229 8.3003 8.03739 8.31316 8.21923 8.30326L8.21986 8.30323C8.43074 8.29146 8.7092 8.24643 8.96445 8.07309C9.2197 7.89975 9.36997 7.65346 9.46379 7.45831C9.55709 7.26399 9.62612 7.05017 9.67968 6.88426L9.68112 6.87981C9.71008 6.79004 9.73962 6.70045 9.76973 6.61107L9.77005 6.61014C9.79239 6.54339 9.81566 6.47388 9.83902 6.40289C9.88267 6.27925 9.93065 6.12834 9.97664 5.96124C10.05 5.70706 10.1168 5.43266 10.1567 5.14901ZM19.6073 11.2805C19.7487 11.5329 20.5499 11.6206 21.0836 11.3018C21.618 10.9843 21.945 10.2247 21.804 9.97126C21.7925 9.9506 21.7809 9.93032 21.7696 9.91037C21.5826 9.58179 21.4449 9.33981 22.0595 8.87605C22.6455 8.43384 22.8666 8.85117 23.0481 9.19386C23.0685 9.23239 23.0884 9.26998 23.1082 9.3053C23.334 9.70924 22.9399 11.1836 21.4979 12.042C20.0559 12.9004 18.6214 12.5159 18.3955 12.1124C18.376 12.0774 18.3546 12.0414 18.3327 12.0044C18.135 11.6708 17.8934 11.2632 18.5595 10.9605C19.2573 10.6434 19.3913 10.8873 19.5736 11.2195C19.5847 11.2395 19.5958 11.2599 19.6073 11.2805Z"/>
<path d="M21.0836 11.3018C20.5499 11.6206 19.7487 11.5329 19.6073 11.2805C19.5958 11.2599 19.5847 11.2395 19.5736 11.2195C19.3913 10.8873 19.2573 10.6434 18.5595 10.9605C17.8934 11.2632 18.135 11.6708 18.3327 12.0044C18.3546 12.0414 18.376 12.0774 18.3955 12.1124C18.6214 12.5159 20.0559 12.9004 21.4979 12.042C22.9399 11.1836 23.334 9.70924 23.1082 9.3053C23.0884 9.26998 23.0685 9.23239 23.0481 9.19386C22.8666 8.85117 22.6455 8.43384 22.0595 8.87605C21.4449 9.33981 21.5826 9.58179 21.7696 9.91037C21.7809 9.93032 21.7925 9.9506 21.804 9.97126C21.945 10.2247 21.618 10.9843 21.0836 11.3018Z"/>
</mask>
<path d="M4.4967 6.49913C4.73621 6.87435 5.0333 7.13311 5.35741 7.31381C6.53562 5.98514 8.01955 4.92103 9.6966 4.20587C9.64907 3.87613 9.53645 3.5438 9.32844 3.21791C8.92717 2.58927 8.2342 2.27834 7.58654 2.38156C6.97278 2.47937 6.43386 2.94171 6.22041 3.77415C5.39456 3.64717 4.76982 3.97507 4.44 4.5177C4.09262 5.09087 4.09543 5.87048 4.4967 6.49913Z" fill="#1D4392"/>
<path d="M6.01151 7.57676C6.46782 7.70316 6.95112 7.74013 7.37803 7.77253C7.4222 7.77588 7.46576 7.77923 7.50861 7.78265C7.58776 7.79035 7.66325 7.79674 7.73392 7.80178C7.88663 7.81461 8.04557 7.82504 8.19435 7.81694C8.36761 7.80727 8.54975 7.77164 8.70481 7.66633C8.85988 7.56103 8.9636 7.40254 9.04068 7.2422C9.11785 7.08147 9.17761 6.89801 9.23312 6.72607C9.26274 6.63424 9.29295 6.54261 9.32376 6.45119C9.34671 6.38263 9.37016 6.31256 9.39363 6.2412C9.43395 6.12736 9.47943 5.98482 9.52325 5.8253C9.59307 5.58361 9.65375 5.3326 9.68947 5.07906C9.72952 4.7944 9.73916 4.50117 9.6966 4.20587C8.01955 4.92103 6.53562 5.98514 5.35741 7.31381C5.56691 7.43061 5.78769 7.5148 6.01151 7.57676Z" fill="#1D4392"/>
<path d="M27.4313 16.4917C27.7397 13.7023 26.995 11.0187 25.5006 8.80104C21.558 19.6839 15.6443 24.382 10.6867 26.0491L10.6925 26.0512C11.6601 26.403 12.6798 26.6644 13.7004 26.7832C20.5652 27.5907 26.7136 22.9827 27.4313 16.4917Z" fill="#052DA6"/>
<path fill-rule="evenodd" clip-rule="evenodd" d="M10.1567 5.14901C10.2069 4.79256 10.216 4.41235 10.1458 4.02446C12.0256 3.30693 14.1267 3.01996 16.2996 3.27557C20.2143 3.73608 23.5175 5.85834 25.5006 8.80104C21.558 19.6839 15.6443 24.382 10.6867 26.0491C7.94837 26.9699 5.50172 26.9659 3.84005 26.5685C4.61232 25.8211 5.18705 24.8828 5.50991 23.8424C5.70621 23.206 5.46814 22.5372 5.058 22.0199C3.19515 19.6705 2.22392 16.6857 2.56875 13.567C2.81528 11.3374 3.70255 9.32997 5.03951 7.68787C5.31433 7.85436 5.60351 7.96805 5.88914 8.04711C6.39019 8.1859 6.91212 8.2255 7.32993 8.2572L7.34338 8.25822C7.38596 8.26145 7.42756 8.26464 7.46832 8.26789C7.54853 8.27566 7.6256 8.28218 7.69844 8.28741C7.85229 8.3003 8.03739 8.31316 8.21923 8.30326L8.21986 8.30323C8.43074 8.29146 8.7092 8.24643 8.96445 8.07309C9.2197 7.89975 9.36997 7.65346 9.46379 7.45831C9.55709 7.26399 9.62612 7.05017 9.67968 6.88426L9.68112 6.87981C9.71008 6.79004 9.73962 6.70045 9.76973 6.61107L9.77005 6.61014C9.79239 6.54339 9.81566 6.47388 9.83902 6.40289C9.88267 6.27925 9.93065 6.12834 9.97664 5.96124C10.05 5.70706 10.1168 5.43266 10.1567 5.14901ZM19.6073 11.2805C19.7487 11.5329 20.5499 11.6206 21.0836 11.3018C21.618 10.9843 21.945 10.2247 21.804 9.97126C21.7925 9.9506 21.7809 9.93032 21.7696 9.91037C21.5826 9.58179 21.4449 9.33981 22.0595 8.87605C22.6455 8.43384 22.8666 8.85117 23.0481 9.19386C23.0685 9.23239 23.0884 9.26998 23.1082 9.3053C23.334 9.70924 22.9399 11.1836 21.4979 12.042C20.0559 12.9004 18.6214 12.5159 18.3955 12.1124C18.376 12.0774 18.3546 12.0414 18.3327 12.0044C18.135 11.6708 17.8934 11.2632 18.5595 10.9605C19.2573 10.6434 19.3913 10.8873 19.5736 11.2195C19.5847 11.2395 19.5958 11.2599 19.6073 11.2805Z" fill="#4A86D9"/>
<path d="M21.0836 11.3018C20.5499 11.6206 19.7487 11.5329 19.6073 11.2805C19.5958 11.2599 19.5847 11.2395 19.5736 11.2195C19.3913 10.8873 19.2573 10.6434 18.5595 10.9605C17.8934 11.2632 18.135 11.6708 18.3327 12.0044C18.3546 12.0414 18.376 12.0774 18.3955 12.1124C18.6214 12.5159 20.0559 12.9004 21.4979 12.042C22.9399 11.1836 23.334 9.70924 23.1082 9.3053C23.0884 9.26998 23.0685 9.23239 23.0481 9.19386C22.8666 8.85117 22.6455 8.43384 22.0595 8.87605C21.4449 9.33981 21.5826 9.58179 21.7696 9.91037C21.7809 9.93032 21.7925 9.9506 21.804 9.97126C21.945 10.2247 21.618 10.9843 21.0836 11.3018Z" fill="#052DA6"/>
<path d="M9.6966 4.20587L9.4024 3.51598L9.4024 3.51598L9.6966 4.20587ZM10.1458 4.02446L10.4132 4.72515C10.7504 4.59647 10.9481 4.24595 10.8838 3.89086L10.1458 4.02446ZM5.03951 7.68787L4.65091 8.32935C4.97093 8.52321 5.38488 8.45156 5.62112 8.16141L5.03951 7.68787ZM5.35741 7.31381L4.79626 6.81621L4.79626 6.81621L5.35741 7.31381ZM4.10235 6.76693L3.47016 7.17046L3.47016 7.17046L4.10235 6.76693ZM4.03964 4.25956L4.68104 4.64828L4.68114 4.64812L4.03964 4.25956ZM4.03997 4.25902L3.39906 3.86948L3.39847 3.87046L4.03997 4.25902ZM5.89237 3.26009L5.88731 4.01008C6.1935 4.01214 6.4702 3.82787 6.58633 3.54456L5.89237 3.26009ZM7.51445 1.90028L7.63248 2.64093L7.63249 2.64093L7.51445 1.90028ZM9.72279 2.95011L10.355 2.54658L10.355 2.54658L9.72279 2.95011ZM26.2057 9.0565C26.3468 8.66706 26.1455 8.23697 25.7561 8.09589C25.3666 7.9548 24.9365 8.15613 24.7954 8.54558L26.2057 9.0565ZM10.4362 26.756C10.8254 26.8976 11.2558 26.6968 11.3973 26.3075C11.5389 25.9182 11.3381 25.4879 10.9488 25.3463L10.4362 26.756ZM10.508 25.1936C10.1245 25.0369 9.68668 25.2208 9.53006 25.6043C9.37344 25.9878 9.55732 26.4256 9.94079 26.5822L10.508 25.1936ZM10.6867 26.0491L10.4316 26.7544L10.6867 26.0491ZM21.0836 11.3018L20.7004 10.6571L20.6989 10.658L21.0836 11.3018ZM19.6073 11.2805L18.9525 11.6461L18.953 11.6471L19.6073 11.2805ZM18.5595 10.9605L18.2492 10.2777L18.2492 10.2777L18.5595 10.9605ZM18.3955 12.1124L19.05 11.7461L19.05 11.7461L18.3955 12.1124ZM23.1082 9.3053L23.7629 8.93941L23.7619 8.93754L23.1082 9.3053ZM22.0595 8.87605L22.5112 9.47474L22.5112 9.47474L22.0595 8.87605ZM21.804 9.97126L22.4595 9.60677L22.4585 9.605L21.804 9.97126ZM21.7696 9.91037L21.1178 10.2813L21.1178 10.2814L21.7696 9.91037ZM23.0481 9.19386L23.7108 8.84285L23.7108 8.84284L23.0481 9.19386ZM18.3327 12.0044L18.9779 11.622L18.9779 11.622L18.3327 12.0044ZM19.5736 11.2195L20.2311 10.8585L20.2311 10.8585L19.5736 11.2195ZM9.87832 3.32377C9.71815 3.3849 9.55949 3.44899 9.4024 3.51598L9.99079 4.89576C10.1302 4.83631 10.271 4.77943 10.4132 4.72515L9.87832 3.32377ZM4.79626 6.81621C4.68071 6.94652 4.56789 7.07926 4.4579 7.21434L5.62112 8.16141C5.71776 8.04271 5.81693 7.92603 5.91856 7.81142L4.79626 6.81621ZM9.4024 3.51598C7.62563 4.27367 6.04984 5.40254 4.79626 6.81621L5.91856 7.81142C7.02141 6.56773 8.41347 5.5684 9.99079 4.89576L9.4024 3.51598ZM5.42811 7.0464C5.17308 6.8919 4.93435 6.67643 4.73454 6.3634L3.47016 7.17046C3.80113 7.68897 4.21125 8.06301 4.65091 8.32935L5.42811 7.0464ZM4.73454 6.3634C4.38326 5.81306 4.38595 5.13518 4.68104 4.64828L3.39825 3.87083C2.79466 4.86674 2.82456 6.15903 3.47016 7.17046L4.73454 6.3634ZM4.68114 4.64812L4.68146 4.64759L3.39847 3.87046L3.39815 3.87099L4.68114 4.64812ZM4.68087 4.64857C4.9186 4.25744 5.33055 4.00632 5.88731 4.01008L5.89743 2.51011C4.82889 2.5029 3.91878 3.01441 3.39906 3.86948L4.68087 4.64857ZM6.58633 3.54456C6.81249 2.99284 7.20866 2.70847 7.63248 2.64093L7.39642 1.15962C6.41063 1.31672 5.60509 1.98353 5.19841 2.97563L6.58633 3.54456ZM7.63249 2.64093C8.15447 2.55773 8.74095 2.80587 9.0906 3.35364L10.355 2.54658C9.70793 1.53289 8.55088 0.97562 7.3964 1.15962L7.63249 2.64093ZM9.0906 3.35364C9.26258 3.62308 9.35973 3.89271 9.40776 4.15805L10.8838 3.89086C10.803 3.44461 10.6378 2.98974 10.355 2.54658L9.0906 3.35364ZM10.9258 26.76C16.1405 25.0065 22.2011 20.1106 26.2057 9.0565L24.7954 8.54558C20.9149 19.2572 15.1481 23.7576 10.4477 25.3382L10.9258 26.76ZM10.9488 25.3463C10.9462 25.3454 10.9437 25.3445 10.9418 25.3438L10.4316 26.7544C10.4335 26.7551 10.4349 26.7556 10.4362 26.756L10.9488 25.3463ZM10.9418 25.3438C10.6897 25.2526 10.6662 25.2582 10.508 25.1936L9.94079 26.5822C10.0994 26.647 10.3635 26.7297 10.4316 26.7544L10.9418 25.3438ZM20.6989 10.658C20.5878 10.7244 20.4091 10.7646 20.2342 10.7562C20.1506 10.7522 20.1004 10.7383 20.0859 10.7329C20.0793 10.7304 20.0955 10.7354 20.124 10.7556C20.1511 10.7749 20.211 10.8235 20.2617 10.9139L18.953 11.6471C19.1166 11.939 19.3926 12.0749 19.5594 12.1374C19.7515 12.2095 19.9614 12.2449 20.1625 12.2545C20.557 12.2734 21.0457 12.1981 21.4682 11.9457L20.6989 10.658ZM17.7411 12.4786C17.919 12.7966 18.2367 12.9805 18.4821 13.0837C18.7575 13.1996 19.0856 13.2742 19.4389 13.2987C20.15 13.3479 21.0224 13.198 21.8816 12.6864L21.1143 11.3976C20.5315 11.7445 19.9656 11.8315 19.5425 11.8022C19.3287 11.7874 19.1656 11.7439 19.0635 11.701C18.9314 11.6454 18.985 11.6299 19.05 11.7461L17.7411 12.4786ZM21.8816 12.6864C22.7403 12.1752 23.2966 11.4749 23.6057 10.8255C23.7595 10.5024 23.8586 10.1782 23.8981 9.88151C23.9331 9.61876 23.9382 9.25293 23.7629 8.93941L22.4535 9.6712C22.3912 9.55964 22.4317 9.52958 22.4112 9.6837C22.3952 9.80385 22.348 9.97769 22.2513 10.1809C22.0593 10.5843 21.6976 11.0503 21.1143 11.3976L21.8816 12.6864ZM21.1486 10.3358C21.0991 10.2468 21.0898 10.1733 21.0877 10.1456C21.0854 10.1154 21.0888 10.1035 21.0869 10.1146C21.0829 10.138 21.067 10.1959 21.0266 10.2765C20.9417 10.4457 20.8135 10.5899 20.7004 10.6571L21.4667 11.9466C21.888 11.6962 22.1905 11.3018 22.3676 10.9485C22.4581 10.7679 22.5309 10.5685 22.5653 10.3683C22.5947 10.1967 22.6191 9.89371 22.4595 9.60677L21.1486 10.3358ZM22.4585 9.605C22.4454 9.58159 22.4326 9.55901 22.4214 9.53937L21.1178 10.2814C21.1293 10.3016 21.1395 10.3196 21.1496 10.3375L22.4585 9.605ZM22.4214 9.53939C22.3968 9.49607 22.3807 9.46764 22.3672 9.44193C22.3542 9.41725 22.3496 9.40612 22.3486 9.40355C22.3478 9.40167 22.3529 9.41418 22.3569 9.43767C22.361 9.46268 22.3631 9.49553 22.3586 9.5327C22.3542 9.56995 22.3446 9.60026 22.3354 9.62132C22.3267 9.64116 22.3206 9.64761 22.3261 9.64047C22.3317 9.63299 22.3469 9.61466 22.3778 9.58548C22.4086 9.5564 22.4518 9.51961 22.5112 9.47474L21.6077 8.27736C21.2644 8.53643 20.9263 8.87605 20.8692 9.35511C20.8155 9.80571 21.057 10.1746 21.1178 10.2813L22.4214 9.53939ZM22.5112 9.47474C22.5537 9.4427 22.5795 9.42861 22.5895 9.42378C22.5991 9.41914 22.5882 9.42587 22.5593 9.4307C22.5285 9.43585 22.4855 9.4374 22.4359 9.42756C22.3867 9.41778 22.3459 9.39974 22.316 9.38153C22.2876 9.36429 22.2725 9.34916 22.2693 9.34583C22.2663 9.34272 22.2707 9.34674 22.2818 9.36297C22.2929 9.37907 22.3069 9.40151 22.325 9.43339C22.3434 9.46594 22.3618 9.50054 22.3853 9.54488L23.7108 8.84284C23.6693 8.76448 23.6015 8.63451 23.517 8.51192C23.4329 8.38981 23.2985 8.22336 23.095 8.0997C22.871 7.96354 22.6013 7.90288 22.3121 7.95121C22.0457 7.99572 21.8106 8.12432 21.6077 8.27736L22.5112 9.47474ZM22.3853 9.54487C22.4047 9.58165 22.4292 9.62793 22.4546 9.67307L23.7619 8.93754C23.7475 8.91203 23.7322 8.88314 23.7108 8.84285L22.3853 9.54487ZM19.05 11.7461C19.0251 11.7016 18.9988 11.6573 18.9779 11.622L17.6875 12.3867C17.7104 12.4254 17.7269 12.4533 17.7411 12.4786L19.05 11.7461ZM18.9779 11.622C18.9523 11.5788 18.9324 11.5451 18.9142 11.5123C18.8964 11.4802 18.8843 11.4562 18.8761 11.4378C18.8679 11.4193 18.8661 11.4122 18.8667 11.4145C18.8674 11.4171 18.8718 11.4344 18.8721 11.4632C18.8724 11.4935 18.8681 11.5321 18.8542 11.5737C18.8401 11.6156 18.8207 11.6479 18.8038 11.6693C18.7879 11.6894 18.7788 11.6943 18.7879 11.6877C18.7975 11.6808 18.8222 11.6649 18.8697 11.6433L18.2492 10.2777C18.0161 10.3836 17.7929 10.5291 17.6267 10.7395C17.4484 10.9653 17.3696 11.2234 17.3722 11.4785C17.3746 11.713 17.4451 11.9116 17.506 12.0484C17.5668 12.1848 17.6422 12.3103 17.6875 12.3867L18.9779 11.622ZM18.8697 11.6433C18.937 11.6127 18.989 11.5928 19.0279 11.5802C19.067 11.5675 19.0882 11.5636 19.0948 11.5626C19.1009 11.5618 19.0883 11.5643 19.0621 11.5616C19.0343 11.5587 18.9982 11.5507 18.9589 11.5335C18.9199 11.5164 18.8893 11.4952 18.8678 11.4768C18.8476 11.4595 18.8384 11.447 18.8392 11.4481C18.8404 11.4497 18.8473 11.459 18.8615 11.483C18.8763 11.508 18.8922 11.5367 18.9162 11.5805L20.2311 10.8585C20.1756 10.7575 19.9832 10.3446 19.5608 10.1595C19.1057 9.9602 18.6339 10.1029 18.2492 10.2777L18.8697 11.6433ZM18.9162 11.5805C18.9271 11.6002 18.9395 11.6229 18.9525 11.6461L20.2622 10.9149C20.2522 10.897 20.2422 10.8789 20.2311 10.8585L18.9162 11.5805ZM7.37803 7.77253L7.49155 6.27683L7.49154 6.27683L7.37803 7.77253ZM6.01151 7.57676L6.41196 6.1312L6.41165 6.13111L6.01151 7.57676ZM7.50861 7.78265L7.65377 6.28969C7.64514 6.28885 7.63652 6.28809 7.62788 6.2874L7.50861 7.78265ZM7.73392 7.80178L7.85945 6.30704C7.85323 6.30652 7.847 6.30604 7.84076 6.30559L7.73392 7.80178ZM8.19435 7.81694L8.27587 9.31473L8.27794 9.31461L8.19435 7.81694ZM8.70481 7.66633L9.54751 8.90724L9.54751 8.90724L8.70481 7.66633ZM9.04068 7.2422L10.3926 7.89214L10.3929 7.8914L9.04068 7.2422ZM9.23312 6.72607L10.6606 7.18693L10.6607 7.18655L9.23312 6.72607ZM9.32376 6.45119L10.7452 6.93017L10.7462 6.92735L9.32376 6.45119ZM9.39363 6.2412L7.97973 5.74032C7.97593 5.75104 7.97225 5.76181 7.96869 5.77262L9.39363 6.2412ZM9.52325 5.8253L8.08218 5.409C8.08036 5.4153 8.07858 5.42161 8.07684 5.42793L9.52325 5.8253ZM9.68947 5.07906L11.1748 5.28832L11.1748 5.28807L9.68947 5.07906ZM9.6966 4.20587L8.21194 4.41987L8.21194 4.41987L9.6966 4.20587ZM10.1458 4.02446L9.61086 2.62307C8.9366 2.88044 8.5412 3.58148 8.66976 4.29165L10.1458 4.02446ZM10.1567 5.14901L11.6421 5.35827L11.6421 5.35802L10.1567 5.14901ZM9.97664 5.96124L8.53541 5.54547C8.53371 5.55137 8.53204 5.55728 8.53041 5.56321L9.97664 5.96124ZM9.83902 6.40289L8.42456 5.9036C8.421 5.91368 8.41755 5.9238 8.4142 5.93396L9.83902 6.40289ZM9.77005 6.61014L8.34762 6.13399L8.34753 6.13427L9.77005 6.61014ZM9.76973 6.61107L11.1912 7.09005L11.1922 7.08694L9.76973 6.61107ZM9.68112 6.87981L11.1085 7.34073L11.1087 7.34028L9.68112 6.87981ZM9.67968 6.88426L8.25225 6.42334L8.25223 6.42341L9.67968 6.88426ZM9.46379 7.45831L10.8157 8.10826L10.816 8.10752L9.46379 7.45831ZM8.96445 8.07309L8.12175 6.83217L8.12175 6.83218L8.96445 8.07309ZM8.21986 8.30323L8.30012 9.80108L8.30345 9.8009L8.21986 8.30323ZM8.21923 8.30326L8.13896 6.80541L8.1377 6.80548L8.21923 8.30326ZM7.69844 8.28741L7.82366 6.79265C7.81772 6.79215 7.81178 6.79169 7.80584 6.79126L7.69844 8.28741ZM7.46832 8.26789L7.61291 6.77487C7.60438 6.77405 7.59585 6.7733 7.58732 6.77262L7.46832 8.26789ZM7.34338 8.25822L7.4569 6.76252L7.45677 6.76251L7.34338 8.25822ZM7.32993 8.2572L7.21645 9.7529L7.21653 9.7529L7.32993 8.2572ZM5.88914 8.04711L6.28955 6.60154L6.28928 6.60147L5.88914 8.04711ZM5.03951 7.68787L5.81671 6.40493C5.17668 6.01719 4.34877 6.1605 3.8763 6.74081L5.03951 7.68787ZM5.35741 7.31381L4.62696 8.62394L4.62696 8.62395L5.35741 7.31381ZM4.4967 6.49913L5.76108 5.69207L4.4967 6.49913ZM4.44 4.5177L3.15819 3.73861L3.1572 3.74025L4.44 4.5177ZM6.22041 3.77415L5.99245 5.25673C6.75482 5.37395 7.48182 4.89388 7.67341 4.14672L6.22041 3.77415ZM7.58654 2.38156L7.8226 3.86287L7.82263 3.86287L7.58654 2.38156ZM9.32844 3.21791L10.5928 2.41086L10.5928 2.41085L9.32844 3.21791ZM16.2996 3.27557L16.4749 1.78584L16.4749 1.78584L16.2996 3.27557ZM25.5006 8.80104L24.2567 9.6393L24.2567 9.6393L25.5006 8.80104ZM27.4313 16.4917L28.9222 16.6566L27.4313 16.4917ZM13.7004 26.7832L13.8756 25.2934L13.8738 25.2932L13.7004 26.7832ZM10.6925 26.0512L11.2051 24.6415L11.2036 24.6409L10.6925 26.0512ZM3.84005 26.5685L2.79683 25.4907C2.40339 25.8715 2.24871 26.4365 2.39327 26.9646C2.53784 27.4927 2.95868 27.9001 3.49121 28.0274L3.84005 26.5685ZM5.50991 23.8424L6.94251 24.287L6.94328 24.2845L5.50991 23.8424ZM5.058 22.0199L6.23339 21.0879L6.23335 21.0879L5.058 22.0199ZM2.56875 13.567L1.07784 13.4021L2.56875 13.567ZM10.6867 26.0491L11.1978 24.6388C10.8789 24.5233 10.5302 24.5192 10.2086 24.6273L10.6867 26.0491ZM7.49154 6.27683C7.04238 6.24274 6.70459 6.21226 6.41196 6.1312L5.61106 9.02231C6.23105 9.19406 6.85986 9.23752 7.26451 9.26823L7.49154 6.27683ZM7.62788 6.2874C7.58224 6.28376 7.5365 6.28025 7.49155 6.27683L7.26451 9.26823C7.30789 9.27152 7.34928 9.27471 7.38935 9.2779L7.62788 6.2874ZM7.84076 6.30559C7.78393 6.30153 7.72125 6.29625 7.65377 6.28969L7.36346 9.27561C7.45427 9.28444 7.54257 9.29194 7.62707 9.29797L7.84076 6.30559ZM8.11282 6.31916C8.07605 6.32116 8.00661 6.3194 7.85945 6.30704L7.60838 9.29652C7.76664 9.30981 8.01509 9.32892 8.27587 9.31472L8.11282 6.31916ZM7.86212 6.42542C7.94719 6.36764 8.02276 6.34082 8.06688 6.32896C8.10823 6.31784 8.12752 6.31834 8.11075 6.31927L8.27794 9.31461C8.57637 9.29795 9.07095 9.23087 9.54751 8.90724L7.86212 6.42542ZM7.68881 6.59225C7.67895 6.61275 7.68275 6.6004 7.70458 6.57146C7.72778 6.54072 7.77781 6.48267 7.86211 6.42542L9.54751 8.90724C10.0191 8.58701 10.266 8.15546 10.3926 7.89214L7.68881 6.59225ZM7.80567 6.26521C7.7448 6.45376 7.71425 6.53926 7.68845 6.59299L10.3929 7.8914C10.5215 7.62368 10.6104 7.34226 10.6606 7.18693L7.80567 6.26521ZM7.90229 5.97222C7.86941 6.06977 7.83716 6.16757 7.80554 6.26559L10.6607 7.18655C10.6883 7.10091 10.7165 7.01545 10.7452 6.93017L7.90229 5.97222ZM7.96869 5.77262C7.94666 5.83961 7.92445 5.90599 7.90134 5.97504L10.7462 6.92735C10.769 6.85927 10.7937 6.78552 10.8186 6.70978L7.96869 5.77262ZM8.07684 5.42793C8.04236 5.55344 8.00767 5.66143 7.97973 5.74032L10.8075 6.74208C10.8602 6.59329 10.9165 6.4162 10.9697 6.22268L8.07684 5.42793ZM8.20414 4.86981C8.18161 5.02974 8.14037 5.20757 8.08218 5.409L10.9643 6.24161C11.0458 5.95965 11.1259 5.63547 11.1748 5.28832L8.20414 4.86981ZM8.21194 4.41987C8.22992 4.54463 8.22918 4.69181 8.2041 4.87006L11.1748 5.28807C11.2299 4.897 11.2484 4.45772 11.1813 3.99187L8.21194 4.41987ZM8.66976 4.29165C8.70525 4.4877 8.70474 4.70271 8.67135 4.94001L11.6421 5.35802C11.709 4.88241 11.7267 4.33699 11.6218 3.75727L8.66976 4.29165ZM8.67139 4.93976C8.64456 5.1302 8.59709 5.33168 8.53541 5.54547L11.4179 6.37701C11.5028 6.08245 11.589 5.73513 11.6421 5.35827L8.67139 4.93976ZM8.53041 5.56321C8.49359 5.69699 8.45615 5.8141 8.42456 5.9036L11.2535 6.90218C11.3092 6.74439 11.3677 6.55969 11.4229 6.35927L8.53041 5.56321ZM8.4142 5.93396C8.39221 6.00077 8.37013 6.06675 8.34762 6.13399L11.1925 7.08629C11.2146 7.02003 11.2391 6.94699 11.2638 6.87182L8.4142 5.93396ZM8.34753 6.13427L8.34722 6.1352L11.1922 7.08694L11.1926 7.086L8.34753 6.13427ZM8.34826 6.13209C8.31608 6.22762 8.2845 6.32337 8.25354 6.41934L11.1087 7.34028C11.1356 7.2567 11.1632 7.17329 11.1912 7.09005L8.34826 6.13209ZM8.25369 6.41889L8.25225 6.42334L11.1071 7.34518L11.1085 7.34073L8.25369 6.41889ZM8.25223 6.42341C8.22467 6.50878 8.20154 6.58001 8.17604 6.65052C8.15071 6.72056 8.1292 6.77237 8.11156 6.80911L10.816 8.10752C10.9602 7.80713 11.058 7.49733 11.1071 7.34511L8.25223 6.42341ZM8.11192 6.80836C8.10271 6.82751 8.09502 6.84186 8.08868 6.85265C8.08233 6.86345 8.07836 6.86896 8.07721 6.87048C8.07486 6.87359 8.08832 6.85488 8.12175 6.83217L9.80714 9.314C10.3789 8.92569 10.6724 8.40631 10.8157 8.10826L8.11192 6.80836ZM8.12175 6.83218C8.13819 6.82101 8.15323 6.81316 8.16506 6.80795C8.1766 6.80286 8.18407 6.80072 8.1859 6.80023C8.18758 6.79978 8.18463 6.80068 8.17592 6.80193C8.16719 6.80318 8.15443 6.80455 8.13627 6.80556L8.30345 9.8009C8.63966 9.78213 9.23049 9.7056 9.80714 9.314L8.12175 6.83218ZM8.1396 6.80538L8.13896 6.80541L8.29949 9.80111L8.30012 9.80108L8.1396 6.80538ZM8.1377 6.80548C8.10753 6.80712 8.06553 6.80741 8.00929 6.80512C7.95315 6.80284 7.89342 6.79849 7.82366 6.79265L7.57321 9.78218C7.73399 9.79564 8.0077 9.817 8.30075 9.80105L8.1377 6.80548ZM7.80584 6.79126C7.74639 6.787 7.68176 6.78154 7.61291 6.77487L7.32374 9.7609C7.4153 9.76977 7.50481 9.77737 7.59103 9.78356L7.80584 6.79126ZM7.58732 6.77262C7.54392 6.76916 7.50025 6.76581 7.4569 6.76252L7.22985 9.75391C7.27167 9.75709 7.31121 9.76013 7.34933 9.76316L7.58732 6.77262ZM7.45677 6.76251L7.44332 6.76149L7.21653 9.7529L7.22998 9.75392L7.45677 6.76251ZM7.4434 6.76149C7.00748 6.72842 6.62832 6.69538 6.28955 6.60154L5.48872 9.49268C6.15207 9.67642 6.81676 9.72257 7.21645 9.7529L7.4434 6.76149ZM6.28928 6.60147C6.10815 6.55133 5.95136 6.4865 5.81671 6.40493L4.26231 8.97082C4.6773 9.22222 5.09887 9.38477 5.489 9.49276L6.28928 6.60147ZM6.41165 6.13111C6.27933 6.09449 6.17362 6.0515 6.08786 6.00368L4.62696 8.62395C4.96019 8.80973 5.29605 8.93512 5.61137 9.0224L6.41165 6.13111ZM6.08786 6.00368C5.96591 5.93569 5.85821 5.84424 5.76108 5.69207L3.23232 7.30619C3.61421 7.90446 4.10069 8.33053 4.62696 8.62394L6.08786 6.00368ZM5.76108 5.69207C5.71138 5.6142 5.68889 5.53107 5.68726 5.45528C5.68558 5.37742 5.70584 5.32313 5.72279 5.29516L3.1572 3.74025C2.50169 4.82184 2.53636 6.21585 3.23232 7.30619L5.76108 5.69207ZM5.7218 5.29679C5.73507 5.27497 5.74443 5.26953 5.75458 5.26501C5.76443 5.26063 5.83218 5.23209 5.99245 5.25673L6.44837 2.29158C5.06416 2.07874 3.82379 2.64354 3.15819 3.73861L5.7218 5.29679ZM7.67341 4.14672C7.72071 3.96224 7.78362 3.89282 7.79979 3.87707C7.81429 3.86296 7.81866 3.8635 7.8226 3.86287L7.35048 0.900254C6.07004 1.10431 5.10915 2.06887 4.76742 3.40159L7.67341 4.14672ZM7.82263 3.86287C7.83854 3.86033 7.96062 3.86292 8.06406 4.02497L10.5928 2.41085C9.89372 1.31562 8.62986 0.696342 7.35044 0.900259L7.82263 3.86287ZM8.06406 4.02497C8.15037 4.16019 8.19294 4.28805 8.21194 4.41987L11.1813 3.99187C11.1052 3.46422 10.9225 2.92742 10.5928 2.41086L8.06406 4.02497ZM16.4749 1.78584C14.0594 1.5017 11.7148 1.82002 9.61086 2.62307L10.6807 5.42584C12.3364 4.79384 14.194 4.53822 16.1244 4.7653L16.4749 1.78584ZM26.7445 7.96278C24.519 4.66025 20.8269 2.2978 16.4749 1.78584L16.1244 4.7653C19.6018 5.17436 22.5161 7.05643 24.2567 9.6393L26.7445 7.96278ZM28.9222 16.6566C29.2722 13.4912 28.4242 10.4554 26.7445 7.96278L24.2567 9.6393C25.5658 11.582 26.2072 13.9133 25.9404 16.3269L28.9222 16.6566ZM13.5251 28.2729C21.135 29.1681 28.1042 24.0545 28.9222 16.6566L25.9404 16.3269C25.3229 21.9108 19.9954 26.0133 13.8756 25.2934L13.5251 28.2729ZM10.1798 27.4608C11.2383 27.8458 12.3724 28.1388 13.527 28.2731L13.8738 25.2932C12.9872 25.1901 12.0818 24.9603 11.2051 24.6415L10.1798 27.4608ZM4.07731 23.3979C3.828 24.2012 3.3857 24.9208 2.79683 25.4907L4.88327 27.6464C5.83895 26.7214 6.5461 25.5644 6.94251 24.287L4.07731 23.3979ZM3.88261 22.9518C3.98457 23.0804 4.04169 23.1998 4.06578 23.2868C4.08793 23.3668 4.0775 23.3972 4.07654 23.4003L6.94328 24.2845C7.33708 23.0077 6.82257 21.8311 6.23339 21.0879L3.88261 22.9518ZM1.07784 13.4021C0.686369 16.9426 1.79285 20.3162 3.88264 22.9518L6.23335 21.0879C4.59746 19.0248 3.76147 16.4288 4.05966 13.7318L1.07784 13.4021ZM3.8763 6.74081C2.36486 8.5972 1.3574 10.8738 1.07784 13.4021L4.05966 13.7318C4.27316 11.801 5.04023 10.0627 6.20273 8.63494L3.8763 6.74081ZM3.49121 28.0274C5.44755 28.4952 8.18099 28.4742 11.1648 27.4709L10.2086 24.6273C7.71576 25.4656 5.5559 25.4365 4.18889 25.1097L3.49121 28.0274ZM10.1756 27.4593L10.1814 27.4614L11.2036 24.6409L11.1978 24.6388L10.1756 27.4593Z" fill="#ECF3FB" mask="url(#path-2-outside-1_776_16528)"/>
</g>
<path d="M35.9035 23V7.38H39.4895V13.562H46.0235V7.38H49.6315V23H46.0235V16.708H39.4895V23H35.9035ZM64.1474 10.482H56.9754V13.584H63.6854V16.686H56.9754V19.898H64.3674L64.1474 23H53.4554V7.38H64.1474V10.482ZM65.224 23L72 7.38H75.014L81.526 23H77.874L76.62 19.81H70.174L68.876 23H65.224ZM71.406 16.818H75.432L73.452 11.78L71.406 16.818ZM96.4699 19.634L97.3059 22.406C96.9832 22.6553 96.5652 22.8533 96.0519 23C95.5532 23.1467 95.0399 23.22 94.5119 23.22C93.5585 23.22 92.7225 23.0293 92.0039 22.648C91.2852 22.252 90.6912 21.68 90.2219 20.932L88.3519 17.94C88.1319 17.588 87.9119 17.346 87.6919 17.214C87.4865 17.0673 87.2445 16.9867 86.9659 16.972V23H83.4459V7.38H88.5719C90.7279 7.38 92.3412 7.81267 93.4119 8.678C94.4972 9.54333 95.0399 10.7387 95.0399 12.264C95.0399 13.4667 94.6659 14.4493 93.9179 15.212C93.1845 15.9747 92.2385 16.4733 91.0799 16.708C91.5639 16.9427 91.9892 17.3313 92.3559 17.874L93.1039 19.018C93.5732 19.722 94.1892 20.074 94.9519 20.074C95.2305 20.074 95.4945 20.0447 95.7439 19.986C95.9932 19.9127 96.2352 19.7953 96.4699 19.634ZM88.3739 10.306H86.9659V14.178H88.3519C89.4519 14.178 90.2439 14.024 90.7279 13.716C91.2119 13.3933 91.4539 12.8947 91.4539 12.22C91.4539 11.5453 91.1825 11.0613 90.6399 10.768C90.0972 10.46 89.3419 10.306 88.3739 10.306ZM110.368 7.38L109.906 10.526H105.176V23H101.568V10.526H96.6177V7.38H110.368ZM125.189 19.942C124.543 20.998 123.656 21.812 122.527 22.384C121.397 22.9413 120.143 23.22 118.765 23.22C117.078 23.22 115.633 22.912 114.431 22.296C113.243 21.68 112.326 20.8 111.681 19.656C111.05 18.4973 110.735 17.1113 110.735 15.498C110.735 13.8407 111.087 12.3887 111.791 11.142C112.495 9.89533 113.47 8.92 114.717 8.216C115.978 7.512 117.43 7.16 119.073 7.16C120.51 7.16 121.72 7.424 122.703 7.952C123.7 8.48 124.536 9.27933 125.211 10.35L122.461 12.308C122.109 11.6333 121.625 11.142 121.009 10.834C120.393 10.526 119.733 10.372 119.029 10.372C118.105 10.372 117.298 10.5847 116.609 11.01C115.919 11.4353 115.377 12.0293 114.981 12.792C114.599 13.5547 114.409 14.4347 114.409 15.432C114.409 16.884 114.79 18.0133 115.553 18.82C116.315 19.6267 117.393 20.03 118.787 20.03C119.535 20.03 120.239 19.854 120.899 19.502C121.573 19.1353 122.116 18.5853 122.527 17.852L125.189 19.942ZM134.143 23.22C132.5 23.2347 131.092 22.934 129.919 22.318C128.746 21.702 127.844 20.8147 127.213 19.656C126.582 18.4973 126.267 17.104 126.267 15.476C126.267 13.848 126.597 12.4107 127.257 11.164C127.932 9.90267 128.878 8.92 130.095 8.216C131.312 7.512 132.757 7.16 134.429 7.16C135.91 7.16 137.208 7.48267 138.323 8.128C139.438 8.77333 140.303 9.67533 140.919 10.834C141.55 11.978 141.865 13.3273 141.865 14.882C141.865 16.554 141.535 18.0133 140.875 19.26C140.215 20.5067 139.298 21.4747 138.125 22.164C136.966 22.8533 135.639 23.2053 134.143 23.22ZM134.011 20.03C135.258 20.03 136.27 19.5827 137.047 18.688C137.824 17.7787 138.213 16.5247 138.213 14.926C138.213 13.5327 137.861 12.4253 137.157 11.604C136.453 10.768 135.507 10.35 134.319 10.35C133.454 10.35 132.691 10.5627 132.031 10.988C131.371 11.4133 130.85 12.0073 130.469 12.77C130.102 13.518 129.919 14.398 129.919 15.41C129.919 16.8767 130.278 18.0133 130.997 18.82C131.73 19.6267 132.735 20.03 134.011 20.03ZM155.137 7.38H158.591V23H155.401L148.471 13.298V23H145.017V7.38H148.207L155.137 17.082V7.38ZM172.538 7.38H175.992V23H172.802L165.872 13.298V23H162.418V7.38H165.608L172.538 17.082V7.38ZM190.512 10.482H183.34V13.584H190.05V16.686H183.34V19.898H190.732L190.512 23H179.82V7.38H190.512V10.482ZM206.997 19.942C206.352 20.998 205.464 21.812 204.335 22.384C203.206 22.9413 201.952 23.22 200.573 23.22C198.886 23.22 197.442 22.912 196.239 22.296C195.051 21.68 194.134 20.8 193.489 19.656C192.858 18.4973 192.543 17.1113 192.543 15.498C192.543 13.8407 192.895 12.3887 193.599 11.142C194.303 9.89533 195.278 8.92 196.525 8.216C197.786 7.512 199.238 7.16 200.881 7.16C202.318 7.16 203.528 7.424 204.511 7.952C205.508 8.48 206.344 9.27933 207.019 10.35L204.269 12.308C203.917 11.6333 203.433 11.142 202.817 10.834C202.201 10.526 201.541 10.372 200.837 10.372C199.913 10.372 199.106 10.5847 198.417 11.01C197.728 11.4353 197.185 12.0293 196.789 12.792C196.408 13.5547 196.217 14.4347 196.217 15.432C196.217 16.884 196.598 18.0133 197.361 18.82C198.124 19.6267 199.202 20.03 200.595 20.03C201.343 20.03 202.047 19.854 202.707 19.502C203.382 19.1353 203.924 18.5853 204.335 17.852L206.997 19.942ZM222.059 7.38L221.597 10.526H216.867V23H213.259V10.526H208.309V7.38H222.059Z" fill="#4A88D9"/>
<defs>
<filter id="filter0_i_776_16528" x="-7" y="-3.13831" width="36" height="31.5128" filterUnits="userSpaceOnUse" color-interpolation-filters="sRGB">
<feFlood flood-opacity="0" result="BackgroundImageFix"/>
<feBlend mode="normal" in="SourceGraphic" in2="BackgroundImageFix" result="shape"/>
<feColorMatrix in="SourceAlpha" type="matrix" values="0 0 0 0 0 0 0 0 0 0 0 0 0 0 0 0 0 0 127 0" result="hardAlpha"/>
<feOffset dx="-8" dy="-4"/>
<feGaussianBlur stdDeviation="7"/>
<feComposite in2="hardAlpha" operator="arithmetic" k2="-1" k3="1"/>
<feColorMatrix type="matrix" values="0 0 0 0 0 0 0 0 0 0 0 0 0 0 0 0 0 0 0.25 0"/>
<feBlend mode="normal" in2="shape" result="effect1_innerShadow_776_16528"/>
</filter>
</defs>
</svg>
