<svg width="25" height="17" viewBox="0 0 25 17" fill="none" xmlns="http://www.w3.org/2000/svg">
<path d="M25 14.45V16.15C25 16.3802 24.8969 16.5794 24.6908 16.7477C24.4846 16.9159 24.2405 17 23.9583 17H1.04167C0.759549 17 0.515408 16.9159 0.309245 16.7477C0.103082 16.5794 0 16.3802 0 16.15V14.45C0 14.2198 0.103082 14.0206 0.309245 13.8523C0.515408 13.6841 0.759549 13.6 1.04167 13.6H23.9583C24.2405 13.6 24.4846 13.6841 24.6908 13.8523C24.8969 14.0206 25 14.2198 25 14.45ZM25 7.65V9.35C25 9.58021 24.8969 9.77943 24.6908 9.94766C24.4846 10.1159 24.2405 10.2 23.9583 10.2H1.04167C0.759549 10.2 0.515408 10.1159 0.309245 9.94766C0.103082 9.77943 0 9.58021 0 9.35V7.65C0 7.41979 0.103082 7.22057 0.309245 7.05234C0.515408 6.88411 0.759549 6.8 1.04167 6.8H23.9583C24.2405 6.8 24.4846 6.88411 24.6908 7.05234C24.8969 7.22057 25 7.41979 25 7.65ZM25 0.85V2.55C25 2.78021 24.8969 2.97943 24.6908 3.14766C24.4846 3.31589 24.2405 3.4 23.9583 3.4H1.04167C0.759549 3.4 0.515408 3.31589 0.309245 3.14766C0.103082 2.97943 0 2.78021 0 2.55V0.85C0 0.619792 0.103082 0.420573 0.309245 0.252344C0.515408 0.0841146 0.759549 0 1.04167 0H23.9583C24.2405 0 24.4846 0.0841146 24.6908 0.252344C24.8969 0.420573 25 0.619792 25 0.85Z" fill="black"/>
</svg>
