<svg width="24" height="24" viewBox="0 0 24 24" fill="none" xmlns="http://www.w3.org/2000/svg">
<path d="M15.5 11.5002C15.5 13.5002 13 15.0002 13 16.5002H11C11 15.0002 8.50001 13.5002 8.50001 11.5002C8.50001 9.57018 10.07 8.00018 12 8.00018C13.93 8.00018 15.5 9.57018 15.5 11.5002ZM13 17.5002H11V19.0002H13V17.5002ZM22 12.0002C22 9.24018 20.88 6.74018 19.07 4.93018L18.01 5.99018C18.8002 6.77877 19.4269 7.7156 19.8542 8.74694C20.2815 9.77828 20.5009 10.8838 20.5 12.0002C20.5 14.3402 19.55 16.4702 18.01 18.0102L19.07 19.0702C20 18.1428 20.7376 17.0408 21.2405 15.8275C21.7433 14.6142 22.0014 13.3135 22 12.0002ZM3.50001 12.0002C3.50001 9.66018 4.45001 7.53018 5.99001 5.99018L4.93001 4.93018C3.99998 5.85753 3.26236 6.95951 2.75954 8.17281C2.25672 9.38611 1.99859 10.6868 2.00001 12.0002C2.00001 14.7602 3.12001 17.2602 4.93001 19.0702L5.99001 18.0102C5.19984 17.2216 4.57314 16.2848 4.14585 15.2534C3.71855 14.2221 3.49908 13.1165 3.50001 12.0002ZM17.5 12.0002C17.5 13.5202 16.88 14.8902 15.89 15.8902L16.95 16.9502C17.6011 16.3009 18.1173 15.5293 18.4692 14.6798C18.821 13.8303 19.0014 12.9196 19 12.0002C19 10.0702 18.22 8.32018 16.95 7.05018L15.89 8.11018C16.88 9.11018 17.5 10.4802 17.5 12.0002ZM7.05001 16.9502L8.11001 15.8902C7.11001 14.8902 6.50001 13.5202 6.50001 12.0002C6.50001 10.4802 7.12001 9.11018 8.11001 8.11018L7.05001 7.05018C6.39895 7.69945 5.88266 8.47102 5.53085 9.32053C5.17904 10.17 4.99863 11.0807 5.00001 12.0002C5.00001 13.9302 5.78001 15.6802 7.05001 16.9502Z" fill="#3EFF2D"/>
</svg>
