<svg width="14" height="16" viewBox="0 0 14 16" fill="none" xmlns="http://www.w3.org/2000/svg">
<path d="M12.8333 8C13.1574 8 13.4329 8.09722 13.6597 8.29167C13.8866 8.48611 14 8.72222 14 9V15C14 15.2778 13.8866 15.5139 13.6597 15.7083C13.4329 15.9028 13.1574 16 12.8333 16H1.16667C0.842593 16 0.56713 15.9028 0.340278 15.7083C0.113426 15.5139 0 15.2778 0 15V9C0 8.72222 0.113426 8.48611 0.340278 8.29167C0.56713 8.09722 0.842593 8 1.16667 8H1.55556V4.66667C1.55556 3.38194 2.08825 2.28299 3.15365 1.36979C4.21904 0.456597 5.50116 0 7 0C8.49884 0 9.78096 0.456597 10.8464 1.36979C11.9117 2.28299 12.4444 3.38194 12.4444 4.66667C12.4444 4.84722 12.3675 5.00347 12.2135 5.13542C12.0596 5.26736 11.8773 5.33333 11.6667 5.33333H10.8889C10.6782 5.33333 10.4959 5.26736 10.342 5.13542C10.1881 5.00347 10.1111 4.84722 10.1111 4.66667C10.1111 3.93056 9.80729 3.30208 9.19965 2.78125C8.59201 2.26042 7.8588 2 7 2C6.1412 2 5.40799 2.26042 4.80035 2.78125C4.19271 3.30208 3.88889 3.93056 3.88889 4.66667V8H12.8333Z" fill="#ccc"/>
</svg>
