<svg width="10" height="10" viewBox="0 0 10 10" fill="none" xmlns="http://www.w3.org/2000/svg">
<path d="M2.5 5.75C2.70833 5.75 2.8855 5.67717 3.0315 5.5315C3.1775 5.38583 3.25033 5.20867 3.25 5C3.25 4.79167 3.17717 4.61467 3.0315 4.469C2.88583 4.32333 2.70867 4.25033 2.5 4.25C2.29167 4.25 2.11467 4.323 1.969 4.469C1.82333 4.615 1.75033 4.792 1.75 5C1.75 5.20833 1.823 5.3855 1.969 5.5315C2.115 5.6775 2.292 5.75033 2.5 5.75ZM5 5.75C5.20833 5.75 5.3855 5.67717 5.5315 5.5315C5.6775 5.38583 5.75033 5.20867 5.75 5C5.75 4.79167 5.67717 4.61467 5.5315 4.469C5.38583 4.32333 5.20867 4.25033 5 4.25C4.79167 4.25 4.61467 4.323 4.469 4.469C4.32333 4.615 4.25033 4.792 4.25 5C4.25 5.20833 4.323 5.3855 4.469 5.5315C4.615 5.6775 4.792 5.75033 5 5.75ZM7.5 5.75C7.70833 5.75 7.8855 5.67717 8.0315 5.5315C8.1775 5.38583 8.25033 5.20867 8.25 5C8.25 4.79167 8.17717 4.61467 8.0315 4.469C7.88583 4.32333 7.70867 4.25033 7.5 4.25C7.29167 4.25 7.11467 4.323 6.969 4.469C6.82333 4.615 6.75033 4.792 6.75 5C6.75 5.20833 6.823 5.3855 6.969 5.5315C7.115 5.6775 7.292 5.75033 7.5 5.75ZM5 10C4.30833 10 3.65833 9.86867 3.05 9.606C2.44167 9.34333 1.9125 8.98717 1.4625 8.5375C1.0125 8.0875 0.656333 7.55833 0.394 6.95C0.131667 6.34167 0.000333333 5.69167 0 5C0 4.30833 0.131333 3.65833 0.394 3.05C0.656667 2.44167 1.01283 1.9125 1.4625 1.4625C1.9125 1.0125 2.44167 0.656333 3.05 0.394C3.65833 0.131667 4.30833 0.000333333 5 0C5.69167 0 6.34167 0.131333 6.95 0.394C7.55833 0.656667 8.0875 1.01283 8.5375 1.4625C8.9875 1.9125 9.34383 2.44167 9.6065 3.05C9.86917 3.65833 10.0003 4.30833 10 5C10 5.69167 9.86867 6.34167 9.606 6.95C9.34333 7.55833 8.98717 8.0875 8.5375 8.5375C8.0875 8.9875 7.55833 9.34383 6.95 9.6065C6.34167 9.86917 5.69167 10.0003 5 10Z" fill="#868AE3"/>
</svg>
