<svg width="24" height="24" viewBox="0 0 24 24" fill="none" xmlns="http://www.w3.org/2000/svg">
<path d="M4.045 18.508C2.682 17.145 2 16.463 2 15.616C2 14.768 2.682 14.086 4.045 12.723L12.723 4.045C14.087 2.682 14.768 2 15.616 2C16.463 2 17.145 2.682 18.508 4.045L19.955 5.492C21.318 6.855 22 7.537 22 8.384C22 9.231 21.318 9.914 19.955 11.277L11.277 19.955C9.913 21.318 9.23 22 8.384 22C7.538 22 6.855 21.318 5.492 19.955L4.045 18.508Z" stroke="#323232" stroke-width="2"/>
<path opacity="0.5" d="M8.71381 9.28528L10.2873 10.7157M13.4287 5L15 6.42843M4 13.5716L5.57127 15M6.3569 11.4289L8.71492 13.5716M11.0718 7.14264L13.4287 9.28528" stroke="#323232" stroke-width="2" stroke-linecap="round"/>
</svg>
