<svg width="10" height="10" viewBox="0 0 10 10" fill="none" xmlns="http://www.w3.org/2000/svg">
<path d="M8.42011 0L10.0001 1.57994L8.79561 2.78492L7.21567 1.20497L8.42011 0ZM2.6333 7.36676H4.21325L8.05093 3.52907L6.47099 1.94912L2.6333 5.78681V7.36676Z" fill="#E62020"/>
<path d="M8.42637 8.9467H2.71645C2.70276 8.9467 2.68854 8.95196 2.67485 8.95196C2.65747 8.95196 2.64009 8.94722 2.62218 8.9467H1.0533V1.57362H4.65926L5.71255 0.520325H1.0533C0.472404 0.520325 0 0.992202 0 1.57362V8.9467C0 9.52812 0.472404 9.99999 1.0533 9.99999H8.42637C8.70573 9.99999 8.97364 9.88902 9.17117 9.69149C9.3687 9.49396 9.47967 9.22605 9.47967 8.9467V4.38171L8.42637 5.43501V8.9467Z" fill="#E62020"/>
</svg>
