<svg width="13" height="9" viewBox="0 0 13 9" fill="none" xmlns="http://www.w3.org/2000/svg">
<path d="M12.9742 4.36091C12.4645 3.11631 11.5797 2.03998 10.4291 1.26494C9.27844 0.489909 7.91248 0.0501435 6.5 0C5.08752 0.0501435 3.72156 0.489909 2.57094 1.26494C1.42033 2.03998 0.535501 3.11631 0.0258164 4.36091C-0.00860546 4.45079 -0.00860546 4.54921 0.0258164 4.63909C0.535501 5.88369 1.42033 6.96002 2.57094 7.73506C3.72156 8.51009 5.08752 8.94986 6.5 9C7.91248 8.94986 9.27844 8.51009 10.4291 7.73506C11.5797 6.96002 12.4645 5.88369 12.9742 4.63909C13.0086 4.54921 13.0086 4.45079 12.9742 4.36091ZM6.5 8.18182C4.20327 8.18182 1.77653 6.57409 0.896841 4.5C1.77653 2.42591 4.20327 0.818182 6.5 0.818182C8.79673 0.818182 11.2235 2.42591 12.1032 4.5C11.2235 6.57409 8.79673 8.18182 6.5 8.18182Z" fill="#E62020"/>
<path d="M6.5 2C6.00555 2 5.5222 2.14662 5.11108 2.42133C4.69995 2.69603 4.37952 3.08648 4.1903 3.54329C4.00108 4.00011 3.95157 4.50277 4.04804 4.98773C4.1445 5.47268 4.3826 5.91814 4.73223 6.26777C5.08187 6.6174 5.52732 6.8555 6.01227 6.95196C6.49723 7.04843 6.99989 6.99892 7.45671 6.8097C7.91352 6.62048 8.30397 6.30005 8.57867 5.88892C8.85338 5.4778 9 4.99445 9 4.5C9 3.83696 8.73661 3.20107 8.26777 2.73223C7.79893 2.26339 7.16304 2 6.5 2ZM6.5 6.16667C6.17037 6.16667 5.84813 6.06892 5.57405 5.88578C5.29997 5.70265 5.08635 5.44235 4.9602 5.1378C4.83406 4.83326 4.80105 4.49815 4.86536 4.17485C4.92967 3.85155 5.0884 3.55458 5.32149 3.32149C5.55458 3.0884 5.85155 2.92967 6.17485 2.86536C6.49815 2.80105 6.83326 2.83405 7.13781 2.9602C7.44235 3.08635 7.70265 3.29997 7.88578 3.57405C8.06892 3.84813 8.16667 4.17036 8.16667 4.5C8.16667 4.94203 7.99107 5.36595 7.67851 5.67851C7.36595 5.99107 6.94203 6.16667 6.5 6.16667Z" fill="#E62020"/>
</svg>
